<?xml version="1.0" standalone="no"?>
<!DOCTYPE svg PUBLIC "-//W3C//DTD SVG 20010904//EN"
 "http://www.w3.org/TR/2001/REC-SVG-20010904/DTD/svg10.dtd">
<svg version="1.0" xmlns="http://www.w3.org/2000/svg"
 width="736.000000pt" height="1027.000000pt" viewBox="0 0 736.000000 1027.000000"
 preserveAspectRatio="xMidYMid meet">
<metadata>
Created by potrace 1.16, written by Peter Selinger 2001-2019
</metadata>
<g transform="translate(0.000000,1027.000000) scale(0.100000,-0.100000)"
fill="#000000" stroke="none">
<path d="M75 10228 c-77 -89 -75 -67 -75 -611 1 -424 2 -485 15 -481 8 4 15
10 15 16 0 5 -5 6 -12 2 -6 -4 -8 -3 -5 4 4 5 17 8 29 4 13 -3 19 -1 15 5 -4
6 1 17 10 24 15 12 16 12 10 -3 -10 -28 0 -21 22 16 17 27 26 33 44 29 12 -3
19 -2 14 2 -4 5 6 14 23 21 16 7 35 24 42 39 6 14 15 25 20 25 5 0 6 -5 2 -12
-5 -7 -3 -8 5 -4 7 5 10 14 8 20 -4 9 3 12 21 9 21 -4 24 -2 12 6 -12 9 -12
11 -1 11 8 0 20 8 27 18 10 13 13 14 14 3 0 -11 4 -9 14 5 8 10 18 19 23 20
23 2 41 17 36 30 -3 8 -1 14 5 14 6 0 12 -6 15 -12 3 -8 9 -1 16 15 6 15 13
27 15 27 3 0 3 -7 0 -15 -11 -27 6 -16 26 18 11 17 20 26 20 20 0 -22 20 -14
52 20 18 17 26 24 19 15 -10 -13 -10 -18 -2 -18 6 0 14 7 18 16 3 8 12 13 20
9 10 -3 13 -1 10 9 -4 9 0 12 13 9 10 -3 23 4 32 16 8 12 18 18 21 15 4 -4 16
4 27 17 15 18 18 19 14 6 -6 -17 -5 -18 14 -6 11 7 19 17 16 21 -3 4 2 5 10 2
9 -3 16 -1 16 5 0 6 5 11 12 11 7 0 21 10 33 23 11 13 16 17 11 10 -5 -8 -4
-13 3 -13 6 0 14 7 17 15 4 8 10 12 15 10 4 -3 28 3 51 13 67 30 82 35 91 33
5 -1 6 3 3 8 -3 5 4 12 17 16 12 4 24 8 27 10 3 1 14 5 25 9 11 5 49 22 85 39
36 17 69 30 74 29 4 -2 15 5 23 15 8 10 11 11 7 3 -7 -13 -5 -13 8 -2 9 7 27
15 40 16 13 2 36 8 51 15 16 6 34 11 42 11 8 0 17 5 20 10 4 6 11 8 16 5 5 -4
9 -2 9 2 0 5 32 17 70 28 39 11 70 23 70 28 0 4 5 5 10 2 5 -3 10 -2 10 3 0 5
12 12 28 15 40 8 164 44 198 58 16 7 32 13 37 14 4 2 10 4 15 5 4 1 17 1 28 1
12 -1 29 5 38 14 12 12 16 13 16 3 0 -10 2 -11 8 0 5 7 16 10 25 6 10 -3 17
-1 17 5 0 6 7 8 15 5 8 -4 15 -2 15 4 0 6 10 8 22 4 14 -3 19 -2 14 6 -4 7 -2
12 3 12 6 0 11 -4 11 -10 0 -5 7 -7 15 -4 8 4 13 9 11 13 -2 3 14 6 35 5 22 0
42 3 45 8 3 4 -2 8 -10 8 -9 0 -16 4 -16 10 0 5 7 7 15 4 8 -4 21 -1 29 5 7 6
16 8 19 4 4 -3 7 -1 7 6 0 9 6 11 18 6 42 -16 57 -14 80 13 15 17 20 20 14 7
-9 -18 -6 -20 24 -21 19 -1 34 3 34 8 0 5 5 6 10 3 6 -4 17 -1 26 5 12 11 12
15 -3 27 -17 14 -17 14 1 8 11 -3 23 0 29 7 6 10 7 9 4 -4 -3 -9 1 -19 9 -22
23 -9 31 -7 14 4 -8 5 -11 13 -6 17 4 4 13 1 19 -7 7 -8 23 -16 37 -17 14 -1
19 1 13 3 -16 7 -17 44 -2 44 5 0 8 -4 5 -9 -6 -10 10 -25 38 -35 16 -5 17 -4
6 9 -7 8 -16 12 -21 9 -5 -3 -9 0 -9 5 0 15 23 14 38 -1 9 -9 12 -9 12 0 0 7
-5 12 -11 12 -5 0 -8 4 -5 8 8 14 -85 13 -102 0 -13 -10 -14 -10 -8 0 6 9
-237 12 -1203 12 l-1209 0 -37 -42z"/>
<path d="M4040 10260 c7 -5 4 -9 -9 -13 -21 -5 -30 -27 -11 -27 6 0 10 5 10
10 0 6 4 10 10 10 5 0 7 -6 4 -14 -4 -10 3 -14 28 -14 18 0 61 -7 96 -15 60
-13 72 -11 53 9 -6 5 -5 15 3 26 11 15 13 15 24 -3 7 -11 8 -19 2 -19 -5 0
-10 5 -10 11 0 5 -4 7 -10 4 -6 -4 -5 -13 2 -25 7 -10 16 -16 20 -13 5 2 14 0
21 -5 7 -5 32 -13 56 -16 25 -3 48 -11 52 -17 4 -8 11 -5 19 7 8 14 10 15 6 2
-5 -18 11 -24 66 -23 21 0 38 -3 38 -6 0 -3 12 -11 26 -18 20 -9 30 -9 40 0
12 9 13 9 9 -3 -4 -11 1 -14 17 -13 13 1 26 -2 29 -8 4 -5 21 -10 38 -11 17 0
31 -5 31 -10 0 -4 7 -6 15 -2 8 3 15 2 15 -3 0 -8 7 -9 55 -12 13 -1 22 -5 19
-10 -10 -17 9 -9 22 9 12 15 12 15 7 -5 -5 -21 4 -28 30 -24 4 1 16 -3 26 -8
12 -7 22 -6 31 2 10 9 11 9 6 0 -5 -9 15 -23 61 -45 78 -37 71 -34 101 -43 12
-4 22 -11 22 -14 0 -12 33 -9 50 3 13 10 13 9 1 -6 -11 -15 -10 -19 13 -29 14
-7 26 -16 26 -21 0 -5 4 -7 9 -4 12 8 62 -19 53 -29 -4 -4 0 -6 8 -3 16 5 50
-27 50 -46 -1 -26 -19 -37 -63 -38 -26 0 -47 -4 -47 -7 0 -4 -10 -8 -22 -8
-13 -1 -29 -10 -37 -20 -13 -17 -13 -17 -8 0 8 22 0 22 -21 -1 -10 -10 -13
-12 -8 -5 6 9 3 13 -8 13 -9 0 -16 -4 -16 -10 0 -5 -5 -10 -11 -10 -5 0 -7 6
-4 13 4 6 0 4 -8 -5 -17 -22 -28 -23 -21 -3 4 8 1 15 -5 15 -6 0 -11 -9 -11
-20 0 -11 -4 -20 -10 -20 -5 0 -6 8 -3 18 6 15 5 15 -10 4 -9 -8 -20 -11 -26
-8 -8 6 -26 -21 -23 -36 1 -3 -5 -12 -14 -18 -12 -11 -13 -10 -8 4 3 9 1 16
-5 16 -6 0 -11 5 -11 11 0 6 7 9 15 5 8 -3 15 -1 15 4 0 15 -26 12 -40 -5 -9
-10 -9 -15 -1 -15 6 0 11 -5 11 -10 0 -7 -7 -7 -21 0 -11 6 -25 9 -32 6 -7 -2
-4 -5 6 -5 9 -1 17 -5 17 -11 0 -12 -10 -13 -30 0 -8 5 -17 6 -20 2 -3 -4 -14
-12 -24 -18 -11 -6 -24 -19 -30 -30 -6 -10 -14 -21 -18 -24 -4 -3 -11 -18 -17
-33 -8 -20 -7 -27 2 -27 8 0 8 -3 -2 -9 -10 -7 -8 -12 10 -26 15 -11 18 -15 7
-12 -10 4 -18 2 -18 -3 0 -6 5 -10 11 -10 6 0 9 -6 6 -13 -3 -7 3 -19 13 -25
15 -9 19 -7 25 15 3 14 8 23 10 21 3 -2 1 -19 -5 -36 -5 -20 -5 -30 1 -27 5 4
17 1 26 -5 17 -11 17 -11 1 -6 -21 6 -23 -1 -5 -17 19 -18 39 -20 50 -5 6 9 7
8 3 -4 -3 -12 0 -18 10 -18 8 0 12 -5 9 -10 -4 -6 -12 -7 -18 -4 -9 5 -9 3 0
-6 10 -11 15 -11 29 1 16 12 17 12 11 -5 -6 -14 -4 -17 9 -12 12 5 14 1 9 -15
-5 -14 -3 -19 3 -15 16 10 82 -25 82 -43 0 -14 1 -14 10 -1 8 13 10 12 10 -4
0 -16 2 -17 17 -5 15 13 16 11 10 -11 -5 -23 -5 -23 7 -7 13 17 14 16 19 -3 3
-11 11 -20 19 -20 10 0 9 3 -2 10 -11 7 -12 10 -2 10 8 0 16 -9 19 -19 3 -13
10 -18 21 -14 10 4 13 2 8 -5 -4 -7 -2 -12 3 -12 6 0 11 6 12 13 0 6 4 2 10
-11 7 -18 14 -22 30 -17 16 5 19 4 14 -6 -6 -9 -3 -11 9 -6 9 4 15 3 12 -2 -7
-11 22 -23 35 -15 5 3 9 -2 9 -11 0 -9 5 -13 10 -10 6 4 7 11 4 17 -4 7 -2 8
4 4 6 -4 9 -12 6 -19 -2 -7 9 -17 26 -24 16 -6 30 -7 30 -2 0 5 4 9 10 9 5 0
7 -7 4 -15 -4 -8 -1 -15 5 -15 6 0 11 5 11 12 0 6 3 9 6 6 3 -4 0 -17 -7 -30
-11 -21 -11 -22 4 -9 10 7 17 10 17 6 0 -4 8 -1 17 6 15 12 16 12 10 -5 -5
-13 -3 -17 7 -13 8 3 17 1 20 -6 3 -9 8 -8 16 3 9 12 10 10 4 -10 -6 -23 -6
-24 12 -10 10 8 16 10 12 6 -12 -15 25 -36 40 -24 9 8 11 7 6 -6 -3 -9 -1 -16
4 -16 6 0 13 8 15 18 4 16 5 16 6 -1 0 -10 6 -15 11 -12 6 3 10 -2 11 -12 0
-10 3 -13 6 -5 7 19 23 14 16 -5 -6 -16 -5 -17 12 -3 17 14 18 13 12 -2 -3
-10 -2 -18 3 -18 6 0 10 4 10 9 0 6 12 6 31 -1 19 -7 28 -15 25 -24 -3 -8 -1
-14 4 -14 6 0 10 6 10 14 0 8 4 18 10 21 6 4 7 -1 3 -11 -5 -13 -3 -16 10 -11
9 3 17 2 17 -3 0 -6 5 -10 11 -10 5 0 7 5 3 12 -4 7 -3 8 4 4 9 -5 9 -13 2
-26 -5 -10 -10 -21 -10 -24 0 -8 42 16 53 29 5 6 5 0 2 -12 -6 -22 10 -34 17
-12 2 5 11 7 21 3 12 -4 16 -12 12 -23 -5 -12 -3 -13 6 -4 16 16 72 -4 65 -23
-3 -8 -1 -14 3 -14 5 0 12 6 14 13 4 9 6 8 6 -2 1 -10 4 -11 15 -2 12 10 13 8
8 -11 -5 -21 -4 -22 13 -8 17 14 18 13 12 -5 -6 -16 -3 -15 13 5 15 19 19 20
13 6 -5 -15 -3 -18 10 -13 12 4 14 2 10 -10 -4 -11 -2 -14 5 -9 21 13 52 15
52 4 0 -5 -7 -8 -15 -4 -8 3 -15 1 -15 -4 0 -13 16 -13 40 0 16 9 18 8 14 -5
-5 -11 -2 -14 12 -9 11 4 25 12 33 18 11 9 13 7 7 -12 l-8 -23 34 19 c34 20
60 12 50 -16 -2 -6 1 -12 7 -12 6 0 11 6 11 14 0 8 5 18 12 22 6 4 8 3 4 -4
-3 -6 -2 -13 4 -17 5 -3 10 -2 10 3 0 5 11 12 24 14 18 4 23 1 19 -9 -4 -10 5
-8 31 6 20 11 36 16 36 11 0 -6 -5 -10 -11 -10 -5 0 -7 -5 -4 -10 7 -11 35 12
35 29 0 6 4 11 10 11 5 0 6 -8 3 -17 -6 -14 -4 -15 8 -5 8 7 23 20 34 28 l20
16 -20 -6 c-18 -5 -18 -4 3 10 23 17 31 40 10 29 -7 -4 -6 -1 2 7 18 16 20 50
3 61 -7 4 -9 15 -6 25 6 15 5 16 -12 2 -14 -11 -17 -11 -11 -1 5 8 3 17 -5 23
-11 8 -10 9 4 4 14 -4 16 -2 8 12 -6 11 -6 24 0 35 6 9 7 22 4 27 -4 6 -3 10
2 9 4 -1 10 0 13 1 3 1 19 3 35 4 17 1 41 5 53 10 22 7 23 6 11 -16 -12 -23
-12 -23 9 -5 20 18 20 18 15 -2 -4 -17 -2 -20 11 -15 12 5 15 2 10 -12 -4 -14
-3 -16 4 -5 5 7 15 10 21 7 6 -4 11 -2 11 3 0 6 -5 11 -11 11 -5 0 -7 4 -4 10
8 14 34 -11 28 -27 -3 -7 0 -13 6 -13 6 0 11 6 11 14 0 8 4 18 10 21 6 3 7 -1
4 -9 -3 -9 -1 -16 5 -16 6 0 11 5 11 10 0 6 4 10 10 10 5 0 7 -7 4 -15 -6 -15
11 -22 19 -7 2 4 2 2 1 -5 -2 -6 4 -14 12 -17 23 -9 36 -7 30 3 -7 11 18 33
27 24 4 -3 7 -1 7 5 0 7 4 12 10 12 5 0 7 -6 4 -14 -7 -17 28 -30 56 -21 11 3
20 13 20 20 0 8 4 16 9 19 5 4 7 -4 4 -16 -4 -20 -3 -21 9 -8 7 8 22 16 33 18
11 2 30 14 42 28 12 13 26 24 31 24 12 0 45 50 45 67 0 6 5 11 11 10 5 -1 10
7 11 18 0 11 3 25 6 30 3 6 4 16 3 23 -1 6 -2 17 -3 23 0 6 -7 9 -15 6 -14 -6
-15 3 -3 43 2 8 2 12 0 8 -9 -16 -22 -8 -16 9 5 12 2 15 -10 10 -15 -6 -16 -3
-7 13 7 14 7 20 0 20 -5 0 -10 -5 -10 -12 0 -6 -3 -9 -6 -6 -3 4 0 16 6 28 11
20 10 21 -12 15 -17 -5 -19 -4 -8 4 12 8 12 11 -4 17 -14 5 -15 9 -5 15 11 6
10 9 -4 15 -9 3 -17 10 -17 15 0 4 7 6 15 3 8 -4 15 -1 15 6 0 6 -4 9 -9 6
-13 -8 -34 21 -25 35 5 9 2 10 -9 6 -20 -8 -24 18 -4 27 6 3 1 3 -11 0 -21 -5
-23 -4 -13 15 10 17 9 20 -4 15 -11 -5 -13 -2 -9 10 4 9 1 16 -6 16 -7 0 -10
7 -6 15 3 8 1 15 -3 15 -5 0 -11 -6 -14 -12 -3 -10 -8 -10 -18 1 -9 9 -9 11
-1 7 6 -4 12 -3 12 3 0 5 -6 12 -12 14 -10 4 -9 8 2 17 12 9 11 10 -7 5 -19
-5 -22 -3 -16 12 6 16 5 17 -12 3 -17 -14 -18 -14 -8 4 7 13 6 26 -4 47 -15
30 -37 38 -47 17 -3 -7 -3 -3 0 10 4 15 1 22 -8 22 -8 0 -23 7 -34 16 -10 8
-14 13 -8 10 7 -3 15 1 18 10 3 8 2 13 -3 10 -5 -3 -22 1 -37 9 -24 12 -26 15
-9 16 19 0 19 1 -1 9 -27 11 -38 27 -24 35 5 3 10 -2 10 -11 0 -14 3 -15 11
-7 18 18 -12 44 -35 31 -9 -5 -22 -7 -29 -4 -7 2 -5 5 4 5 9 1 19 8 22 15 6
16 -16 12 -40 -6 -8 -7 -10 -3 -6 11 3 11 11 17 18 15 7 -3 15 2 19 12 5 14 4
15 -9 4 -8 -7 -15 -9 -15 -5 0 5 -9 0 -20 -10 -22 -20 -28 -7 -7 14 10 11 8
12 -11 6 -21 -6 -23 -5 -13 13 17 32 13 36 -10 11 -19 -23 -20 -23 -10 -2 15
30 14 38 -3 24 -12 -10 -13 -8 -8 11 5 21 4 22 -14 8 -18 -14 -18 -14 -5 3 8
9 11 21 7 24 -4 4 -11 1 -16 -7 -8 -12 -10 -10 -10 8 0 12 -5 22 -10 22 -6 0
-4 13 5 30 15 30 16 30 46 14 17 -8 33 -13 37 -10 3 3 0 6 -7 6 -8 0 -11 7 -7
15 3 8 1 15 -4 15 -15 0 -12 24 6 46 15 18 15 18 5 -3 -7 -14 -8 -24 -1 -28 5
-3 10 0 10 7 0 8 7 23 15 34 14 18 14 18 10 -5 -4 -23 -4 -23 17 -5 21 19 21
19 9 -3 -16 -30 -14 -35 8 -21 15 9 23 9 35 -1 11 -9 16 -10 16 -2 0 6 -4 11
-9 11 -5 0 -7 8 -4 19 3 13 11 17 24 14 10 -3 19 -10 19 -15 0 -6 6 -8 14 -5
24 10 38 -17 21 -39 -14 -18 -15 -17 -9 10 5 21 4 27 -5 21 -7 -4 -10 -10 -7
-13 3 -3 -1 -14 -11 -24 -9 -10 -13 -21 -8 -26 4 -4 10 -2 12 5 2 7 10 10 17
7 14 -5 41 39 33 53 -4 5 0 10 7 10 8 0 11 -8 8 -21 -4 -17 -3 -19 9 -10 21
16 51 26 44 14 -3 -6 1 -13 9 -16 12 -5 13 -11 6 -24 -16 -30 -11 -34 10 -9
l19 24 -4 -23 c-2 -12 0 -20 6 -17 5 4 9 12 9 20 0 8 5 17 12 21 6 4 8 3 4 -4
-3 -6 -2 -13 4 -17 5 -3 10 -1 10 4 0 6 5 11 10 11 7 0 7 -6 1 -19 -9 -16 -8
-18 8 -14 11 3 17 11 15 18 -3 7 -1 16 5 20 7 3 8 0 5 -9 -3 -9 -1 -16 6 -16
6 0 8 -5 4 -12 -5 -8 -2 -9 9 -5 23 9 47 -2 41 -18 -3 -7 2 -15 12 -19 13 -5
15 -4 5 7 -9 11 -8 17 4 27 13 11 14 10 9 -5 -6 -15 -4 -16 15 -6 18 10 22 9
30 -13 10 -25 31 -44 31 -27 0 5 -5 11 -12 13 -9 3 -9 6 0 12 7 4 12 2 12 -4
0 -6 5 -8 12 -4 8 5 9 2 5 -9 -3 -10 -2 -17 3 -17 6 0 10 4 10 8 0 4 9 8 20 8
11 0 20 -7 20 -14 0 -9 -6 -12 -17 -7 -12 4 -15 3 -8 -4 6 -5 22 -7 37 -4 25
5 26 7 26 74 0 45 -4 66 -11 62 -6 -3 -7 -1 -3 5 8 14 -8 46 -40 81 -13 14
-24 29 -24 34 0 4 -4 6 -9 3 -5 -3 -11 1 -15 9 -8 22 -2886 23 -2886 1 0 -8
-5 -18 -11 -22 -8 -4 -9 0 -4 15 5 16 2 21 -11 21 -9 0 -22 -6 -28 -14 -6 -8
-22 -17 -36 -21 -17 -4 -21 -3 -12 3 11 7 10 11 -5 17 -25 12 -153 14 -153 4
0 -5 -5 -9 -11 -9 -5 0 -8 4 -5 8 3 5 -11 9 -30 9 -19 0 -30 -3 -24 -7z"/>
<path d="M2815 8776 c-37 -16 -141 -124 -180 -186 -34 -53 -57 -126 -49 -152
8 -26 30 -22 107 17 80 41 83 41 90 15 8 -30 45 -25 126 17 39 20 74 33 77 30
4 -4 -12 -35 -35 -70 -22 -35 -41 -69 -41 -75 0 -17 25 -15 40 3 9 10 9 15 1
15 -18 0 -13 11 34 84 29 44 42 72 36 80 -4 6 -5 20 0 31 12 31 11 35 -11 35
-26 0 -110 -77 -110 -100 0 -21 -61 -53 -84 -44 -24 9 -19 48 9 82 14 17 25
37 25 46 0 27 -26 6 -63 -48 -30 -46 -117 -106 -151 -106 -52 0 2 124 98 227
37 40 76 75 87 78 29 10 49 -12 49 -54 1 -34 2 -35 15 -17 18 24 20 77 3 94
-15 15 -35 15 -73 -2z"/>
<path d="M4734 8751 c-13 -34 -23 -42 -65 -56 -45 -15 -67 -31 -57 -40 2 -3
18 1 36 7 43 16 49 6 19 -34 -26 -34 -51 -80 -67 -122 -13 -35 8 -50 44 -31
37 20 43 19 49 -5 3 -12 14 -20 26 -20 21 0 21 1 5 25 -15 23 -15 27 0 50 11
17 12 25 5 25 -7 0 -27 -11 -45 -25 -18 -14 -38 -25 -44 -25 -16 0 -8 19 43
107 37 63 47 73 84 83 23 7 74 13 115 14 45 0 71 5 68 11 -3 6 -46 10 -102 9
-54 -1 -98 2 -98 5 0 3 7 15 15 25 19 25 19 36 0 36 -8 0 -22 -18 -31 -39z"/>
<path d="M4265 8772 c-5 -4 -20 -27 -33 -52 -33 -66 -61 -93 -154 -154 -153
-100 -258 -115 -258 -38 0 26 98 128 138 143 30 12 95 12 88 0 -3 -5 -15 -7
-25 -4 -23 6 -39 -16 -20 -28 23 -14 55 -10 72 9 39 43 4 78 -68 68 -104 -16
-238 -160 -218 -235 17 -65 170 -29 316 75 26 19 49 34 52 34 3 0 -1 -12 -8
-27 -38 -73 -29 -90 24 -52 l29 20 0 -30 c0 -36 4 -37 47 -11 32 19 32 19 38
0 8 -26 30 -25 67 1 22 16 32 19 41 10 21 -21 35 -12 35 24 0 19 -2 35 -4 35
-2 0 -25 -14 -51 -30 -52 -33 -75 -27 -48 13 26 40 1 41 -42 2 -21 -19 -42
-35 -47 -35 -4 0 -5 16 -2 35 8 42 3 43 -40 10 -58 -45 -57 -42 43 111 49 75
65 114 46 114 -5 0 -12 -4 -18 -8z"/>
<path d="M3495 8711 c-38 -16 -75 -26 -82 -24 -19 8 -41 -14 -85 -83 -29 -48
-48 -66 -78 -78 -59 -23 -73 -22 -58 7 7 12 19 29 26 38 13 17 7 49 -10 49
-41 0 -148 -91 -148 -125 0 -18 16 -19 59 -4 24 9 35 9 44 0 15 -15 43 -14 79
5 28 15 32 15 40 0 12 -21 31 -20 78 4 46 24 60 25 60 6 0 -25 110 -31 185
-10 53 14 70 15 92 5 19 -9 29 -9 37 -1 8 8 7 13 -2 19 -10 6 -9 14 4 40 15
30 15 34 1 49 -21 21 -58 4 -82 -36 -23 -38 -60 -59 -110 -63 -38 -3 -40 -2
-38 24 l2 28 -26 -21 c-54 -42 -59 -11 -8 46 38 44 61 81 53 89 -11 12 -34 -8
-63 -52 -35 -54 -88 -99 -127 -108 -43 -11 -35 9 33 85 65 72 93 88 202 111
31 7 57 16 57 21 0 17 -67 6 -135 -21z"/>
<path d="M3170 8030 l0 -220 45 0 c63 0 105 20 147 70 79 91 73 215 -15 308
-31 32 -105 62 -154 62 l-23 0 0 -220z m110 145 c67 -35 102 -122 81 -201 -13
-48 -65 -101 -109 -110 l-32 -6 0 166 c0 182 0 182 60 151z"/>
<path d="M3460 8005 l0 -195 85 0 c84 0 85 0 85 25 0 24 -3 25 -60 25 l-60 0
0 30 c0 29 1 30 51 30 47 0 50 2 47 23 -3 19 -9 22 -50 21 l-48 -1 0 94 0 93
60 0 c56 0 60 1 60 23 0 23 -3 24 -85 26 l-85 1 0 -195z"/>
<path d="M3919 8189 c-15 -9 -6 -45 11 -41 8 2 24 1 37 -3 22 -5 23 -8 25
-173 3 -165 3 -167 26 -170 l22 -3 0 174 0 175 40 -5 c38 -5 40 -4 40 21 0 22
-5 26 -27 27 -16 0 -59 1 -96 3 -37 1 -73 -1 -78 -5z"/>
<path d="M3787 8183 c-3 -4 -32 -90 -65 -190 -59 -180 -60 -183 -37 -183 16 0
26 8 33 28 9 27 12 28 72 26 60 -2 64 -4 76 -33 9 -20 20 -31 34 -31 11 0 20
1 20 3 -1 17 -129 386 -133 380z"/>
<path d="M4152 7998 c3 -192 3 -193 26 -196 20 -3 22 1 22 42 l0 46 56 0 56 0
-4 -42 c-2 -38 0 -43 20 -46 13 -2 22 2 23 10 1 7 2 95 3 196 l2 182 -23 0
c-23 0 -23 -2 -23 -125 l0 -125 -55 0 -55 0 0 125 0 125 -25 0 -25 0 2 -192z"/>
<path d="M2000 7677 c-46 -15 -116 -86 -142 -145 -30 -67 -36 -204 -13 -270
53 -146 178 -222 298 -183 57 19 120 83 153 153 24 54 28 75 28 148 0 70 -5
95 -26 140 -64 140 -172 197 -298 157z m161 -90 c18 -12 47 -44 64 -71 27 -45
30 -57 30 -136 0 -79 -3 -91 -30 -136 -93 -150 -277 -110 -326 71 -49 181 126
364 262 272z"/>
<path d="M2360 7380 l0 -310 35 0 35 0 2 202 3 203 53 -145 c103 -281 93 -260
129 -260 l33 0 0 311 0 310 -32 -3 -33 -3 -5 -199 -5 -198 -74 201 -74 201
-33 0 -34 0 0 -310z"/>
<path d="M2870 7650 l0 -40 55 0 55 0 0 -270 0 -270 35 0 35 0 0 270 0 270 55
0 55 0 0 40 0 40 -145 0 -145 0 0 -40z"/>
<path d="M3190 7380 l0 -310 35 0 35 0 0 60 0 60 74 0 c83 0 88 -4 79 -79 l-5
-41 36 0 c27 0 36 4 37 18 0 9 2 149 5 310 l5 292 -36 0 -35 0 -1 -57 c-1 -32
-2 -119 -4 -193 -1 -74 -3 -145 -3 -157 -2 -22 -6 -23 -77 -23 l-75 0 0 215 0
215 -35 0 -35 0 0 -310z"/>
<path d="M3540 7380 l0 -310 120 0 120 0 0 39 c0 37 -2 40 -27 39 -16 -1 -54
-1 -85 0 l-58 2 0 35 0 35 70 0 70 0 0 40 0 40 -70 0 -70 0 0 155 0 155 85 0
85 0 0 40 0 40 -120 0 -120 0 0 -310z"/>
<path d="M4160 7675 c-66 -21 -124 -75 -162 -152 -28 -58 -32 -75 -32 -148 0
-73 4 -90 32 -148 19 -38 49 -79 70 -97 42 -35 129 -70 172 -70 29 0 30 2 30
46 0 43 -2 46 -22 40 -37 -9 -100 16 -144 59 -96 91 -94 255 3 347 34 33 92
58 133 58 28 0 30 2 30 40 0 39 -1 40 -32 39 -18 0 -53 -7 -78 -14z"/>
<path d="M4416 7522 c-27 -92 -69 -232 -93 -311 -23 -79 -43 -144 -43 -145 0
-1 16 -2 35 -2 34 1 37 4 49 46 l13 45 88 0 88 0 14 -41 c11 -34 19 -43 45
-48 17 -3 33 -4 36 -1 2 2 -28 116 -68 252 -39 136 -79 273 -88 303 -9 30 -18
58 -22 62 -3 4 -28 -68 -54 -160z m78 -154 c13 -46 28 -95 31 -110 l7 -28 -67
0 c-50 0 -66 3 -62 13 2 6 17 56 33 110 15 53 29 97 30 97 2 0 14 -37 28 -82z"/>
<path d="M4676 7682 c-3 -3 -6 -144 -6 -314 l0 -309 33 4 32 3 3 77 3 77 32 0
c29 0 36 -7 77 -78 43 -72 48 -77 83 -80 22 -2 37 1 37 8 0 6 -23 47 -50 91
l-50 81 30 28 c45 42 70 105 70 176 0 106 -36 176 -110 214 -34 17 -173 34
-184 22z m152 -92 c48 -30 72 -75 72 -140 0 -88 -45 -145 -120 -152 l-35 -3
-3 158 -3 157 28 0 c16 0 43 -9 61 -20z"/>
<path d="M5022 7682 c-9 -3 -12 -85 -12 -312 l0 -309 67 5 c116 10 191 63 244
170 32 65 34 197 5 264 -31 72 -84 130 -140 156 -47 21 -137 35 -164 26z m124
-91 c140 -64 177 -260 70 -377 -38 -42 -110 -79 -128 -67 -5 2 -8 107 -8 234
0 177 3 229 13 229 6 0 30 -9 53 -19z"/>
<path d="M5441 7673 c-54 -28 -74 -62 -73 -127 1 -73 21 -106 105 -167 83 -61
110 -100 103 -152 -5 -43 -20 -65 -53 -78 -32 -12 -70 7 -82 42 -8 25 -15 29
-46 29 -34 0 -35 -1 -29 -27 33 -142 187 -175 257 -55 29 49 33 121 10 174
-23 50 -44 74 -130 139 -64 50 -80 83 -60 126 19 42 72 41 83 -3 5 -20 12 -24
44 -24 l38 0 -8 37 c-18 76 -96 118 -159 86z"/>
<path d="M1865 6892 c17 -28 23 -31 84 -34 36 -2 879 -5 1872 -7 l1806 -3 22
31 c12 17 21 31 19 32 -2 0 -862 3 -1912 6 l-1909 6 18 -31z"/>
<path d="M3372 6768 l26 -33 365 -3 365 -3 21 29 c12 17 21 33 21 36 0 3 -185
6 -411 6 l-412 0 25 -32z"/>
<path d="M4363 4176 c1 -6 -12 -11 -30 -10 -26 0 -30 -2 -22 -13 6 -7 10 -13
8 -14 -2 0 -17 -3 -33 -5 -26 -5 -28 -3 -16 10 7 9 11 16 9 17 -22 6 -61 4
-65 -3 -3 -4 -10 -5 -16 -2 -6 4 -8 2 -4 -4 3 -6 -2 -16 -11 -22 -16 -10 -16
-11 -1 -6 18 5 34 -9 20 -18 -5 -3 -8 -18 -7 -33 1 -24 5 -27 37 -28 33 -1 35
1 33 27 -2 20 1 28 10 24 7 -2 12 2 11 9 0 8 4 14 9 14 6 1 10 -7 10 -16 0
-10 4 -24 8 -30 5 -8 3 -13 -7 -13 -21 0 -31 -20 -16 -33 10 -9 12 -8 7 5 -5
15 -1 17 30 14 20 -1 39 -8 41 -14 2 -7 -5 -9 -18 -7 -11 2 -18 0 -15 -5 3 -5
1 -11 -4 -14 -5 -4 -12 2 -14 11 -4 17 -5 17 -6 0 -1 -11 -6 -15 -13 -11 -7 4
-8 3 -4 -5 4 -6 11 -9 15 -6 10 5 53 -39 46 -47 -3 -3 5 -5 17 -4 14 1 22 -4
20 -12 -1 -8 2 -11 7 -8 5 4 13 2 16 -4 4 -6 12 -7 18 -3 16 11 47 10 47 -2 0
-6 -7 -10 -15 -10 -20 0 -19 -11 4 -34 16 -16 20 -17 25 -5 3 9 1 12 -4 9 -6
-3 -10 0 -10 9 0 8 7 13 18 11 9 -1 16 -8 15 -14 -2 -6 2 -10 8 -8 6 1 13 -3
16 -10 3 -8 -3 -11 -17 -8 -11 2 -18 0 -15 -5 7 -12 74 -10 82 3 4 6 1 7 -7 2
-8 -5 -11 -3 -8 6 3 8 10 13 15 12 6 -1 10 6 9 15 0 9 4 18 9 19 6 0 9 -3 7
-9 -1 -5 2 -7 8 -3 8 5 8 11 0 20 -8 10 -8 15 0 20 6 4 10 14 8 23 -1 10 2 24
7 32 7 13 6 13 -7 2 -11 -9 -18 -10 -23 -2 -3 5 4 14 16 18 l23 9 -22 5 c-12
4 -25 2 -28 -3 -8 -14 -24 0 -18 16 4 8 10 12 15 9 5 -3 8 0 7 7 -2 7 2 13 9
14 6 0 15 4 20 8 4 5 3 7 -2 5 -6 -2 -10 2 -10 7 0 6 4 9 10 7 6 -2 -1 8 -14
22 -13 14 -29 24 -35 23 -6 -1 -9 5 -8 13 2 8 0 12 -4 8 -4 -4 -14 -2 -22 5
-10 7 -13 8 -9 1 9 -15 -13 -32 -36 -29 -9 2 -15 -1 -12 -5 3 -5 1 -11 -5 -15
-6 -4 -8 -11 -4 -16 3 -5 10 -7 15 -3 5 3 7 9 4 14 -3 5 0 12 6 16 8 5 9 3 4
-6 -6 -9 -4 -11 5 -5 9 6 11 4 5 -5 -5 -8 -4 -11 3 -6 6 3 9 -1 7 -11 -1 -10
-8 -17 -15 -15 -6 1 -8 -2 -4 -9 5 -8 3 -9 -6 -4 -9 6 -11 4 -5 -6 5 -8 4 -11
-1 -6 -5 5 -10 13 -10 18 -1 5 -2 11 -3 14 0 3 -10 1 -20 -4 -14 -8 -22 -7
-30 3 -13 16 -5 26 17 20 14 -5 14 -4 -1 6 -9 6 -15 15 -12 20 3 5 1 11 -5 15
-6 4 -8 10 -5 15 3 5 0 12 -7 17 -20 12 -57 11 -55 -1z m53 -14 c1 -7 2 -13 4
-14 7 -10 6 -39 -2 -44 -14 -9 21 -44 38 -37 8 3 14 -1 14 -10 0 -17 -24 -40
-33 -30 -4 3 1 12 11 19 15 12 15 12 -6 7 -15 -4 -21 -11 -18 -20 3 -8 1 -11
-4 -8 -6 4 -10 3 -9 -2 1 -4 0 -10 -1 -13 -7 -18 -7 -39 0 -35 5 3 7 -3 5 -14
-3 -19 9 -22 33 -8 7 5 12 3 12 -4 0 -8 4 -8 15 1 14 12 20 7 16 -14 -1 -5 5
-4 13 4 15 12 19 10 14 -7 -2 -5 -7 -6 -13 -5 -5 2 -6 0 -2 -4 24 -24 50 -8
53 33 1 16 -4 20 -19 17 -18 -3 -18 -2 -3 15 9 10 13 21 9 26 -5 4 -3 5 3 2
15 -9 11 31 -6 46 -10 10 -11 9 -5 -2 5 -9 4 -12 -3 -7 -6 3 -14 2 -17 -4 -4
-6 -1 -9 6 -8 6 2 14 -3 17 -11 2 -8 0 -11 -6 -7 -6 3 -13 2 -17 -4 -4 -6 -11
-7 -17 -4 -6 4 -8 2 -4 -4 3 -6 2 -13 -3 -16 -5 -4 -13 -1 -16 5 -4 5 -14 8
-24 4 -9 -4 -6 3 9 17 13 13 25 21 26 18 2 -3 14 5 27 18 24 23 29 43 14 58
-4 4 -2 13 5 21 9 11 14 11 29 -3 11 -10 19 -14 19 -9 0 4 7 2 15 -5 12 -10
13 -16 4 -26 -6 -8 -8 -14 -4 -14 3 0 -3 -12 -14 -26 -16 -21 -18 -30 -10 -41
10 -11 15 -11 28 -1 14 11 14 11 3 -3 -10 -13 -10 -19 2 -28 17 -15 15 -34 -6
-58 -9 -10 -18 -22 -20 -28 -5 -15 -47 -14 -59 1 -6 8 -16 11 -22 7 -5 -3 -7
-1 -4 4 13 21 -33 37 -59 20 -6 -3 -19 2 -29 13 -10 11 -21 18 -25 15 -4 -2
-17 6 -29 19 -19 20 -20 24 -6 36 8 7 15 9 15 5 0 -4 7 -2 15 5 16 13 21 35 6
25 -5 -3 -12 -1 -16 4 -3 5 -14 8 -25 6 -12 -2 -18 0 -15 5 3 5 1 11 -3 14 -8
4 -9 50 -2 66 1 3 2 8 1 12 0 4 8 5 19 3 10 -2 24 2 30 10 13 15 44 13 46 -3z"/>
<path d="M4090 4146 c-6 -6 -25 -11 -43 -11 -19 -1 -31 -6 -29 -13 1 -7 -3
-12 -9 -12 -6 0 -9 -7 -5 -15 3 -8 2 -15 -3 -15 -14 0 -32 26 -23 34 4 4 0 6
-8 4 -8 -1 -14 2 -13 9 3 12 -22 12 -34 -1 -4 -4 -3 -6 4 -4 6 2 11 -1 12 -7
1 -5 -8 -10 -18 -10 -11 0 -26 -6 -32 -12 -10 -10 -16 -10 -26 -1 -11 9 -13 8
-11 -3 2 -8 -3 -13 -11 -11 -8 2 -18 -3 -22 -10 -13 -20 -11 -31 6 -25 8 4 17
2 20 -4 4 -5 11 -7 16 -4 5 4 9 1 9 -6 0 -7 6 -5 14 6 13 17 14 17 23 1 9 -16
11 -16 16 -3 4 10 14 14 27 12 18 -3 20 -2 10 10 -7 8 -10 16 -6 16 23 5 33 4
49 -3 10 -5 16 -12 13 -16 -2 -4 26 -7 62 -7 64 0 67 1 67 25 0 19 5 24 20 22
16 -2 17 -1 5 7 -8 6 -15 20 -15 33 0 17 -6 22 -27 23 -15 1 -32 -3 -38 -9z"/>
<path d="M3261 3840 c-1 -9 4 -21 11 -28 7 -7 10 -12 8 -13 -3 0 -13 -2 -23
-4 -13 -2 -17 1 -13 11 4 11 -4 13 -35 12 -22 -1 -35 -5 -28 -9 6 -4 8 -12 4
-18 -5 -9 -11 -9 -23 1 -15 11 -15 11 -6 -2 12 -17 12 -30 1 -47 -10 -16 -28
-17 -24 -1 1 7 -4 13 -10 14 -7 1 -16 2 -20 3 -3 0 2 10 12 21 10 11 15 23 12
27 -4 3 -7 2 -7 -4 0 -5 -22 -9 -49 -8 -28 1 -49 -1 -48 -4 1 -3 -2 -8 -8 -9
-25 -9 -35 -25 -24 -38 6 -7 14 -12 17 -11 4 1 8 -2 9 -8 1 -5 -6 -9 -17 -9
-15 1 -18 -2 -10 -11 5 -6 7 -14 4 -17 -3 -3 9 -4 27 -3 23 2 33 -2 36 -15 3
-11 13 -16 31 -15 16 1 30 -5 34 -14 6 -14 7 -13 7 2 1 9 7 17 14 17 7 0 5 5
-5 10 -13 8 -16 21 -9 48 1 1 10 -2 21 -8 11 -6 18 -15 16 -19 -3 -4 6 -7 19
-7 28 2 114 80 111 101 -1 7 -7 19 -13 26 -5 8 -13 21 -16 29 -5 13 -6 13 -6
0z"/>
<path d="M4928 3829 c15 -20 4 -33 -16 -17 -8 7 -21 13 -29 14 -11 2 -12 -1
-2 -12 11 -13 6 -18 -14 -15 -5 1 -6 -3 -3 -8 3 -5 -1 -14 -9 -21 -12 -10 -15
-10 -15 1 0 11 -2 11 -9 0 -8 -13 -12 -13 -27 0 -9 8 -20 13 -23 13 -3 -1 -5
2 -4 6 1 5 -5 7 -15 5 -19 -3 -44 13 -37 24 2 4 -2 8 -10 8 -8 0 -14 -3 -13
-6 0 -3 -1 -8 -2 -11 -6 -16 -7 -39 -2 -39 19 3 23 -2 12 -16 -10 -12 -8 -14
9 -10 12 2 21 0 21 -6 0 -5 -4 -9 -10 -9 -5 0 -7 -7 -3 -15 3 -10 0 -15 -8
-13 -7 2 -13 -4 -14 -12 0 -8 -7 -14 -15 -12 -10 2 -11 0 -3 -10 16 -19 14
-30 -10 -57 -12 -13 -17 -21 -10 -17 14 8 27 -10 13 -19 -6 -4 -8 -11 -4 -16
3 -5 9 -7 14 -4 5 3 16 -5 24 -17 9 -12 16 -17 16 -10 0 8 5 10 12 6 6 -4 8
-3 5 3 -4 6 0 16 8 23 8 7 15 11 16 9 0 -2 2 -12 4 -23 2 -10 9 -24 16 -30 9
-8 9 -6 0 12 -11 20 -8 26 10 24 3 -1 5 11 4 26 -1 15 1 32 4 37 8 15 10 35 3
32 -4 -1 -8 3 -9 8 -2 6 1 10 6 10 5 0 12 3 16 6 3 4 -4 6 -17 5 -13 0 -23 5
-24 12 -1 6 -2 19 -3 27 0 8 -6 14 -12 13 -6 -2 -13 2 -16 9 -2 6 3 10 13 9
10 -2 20 -10 23 -19 4 -11 11 -13 19 -8 11 7 10 9 -3 15 -9 3 -13 11 -10 16 5
8 11 7 20 0 8 -7 18 -9 24 -6 5 3 12 -1 15 -10 4 -11 18 -14 50 -13 32 2 43 6
39 16 -6 16 18 14 30 -2 4 -5 5 1 3 15 -2 14 1 30 5 36 6 8 2 11 -13 10 -13 0
-23 4 -23 11 0 7 -7 18 -15 25 -12 11 -12 11 -2 -3z"/>
<path d="M3003 3656 c5 -14 4 -17 -8 -12 -8 3 -15 1 -15 -3 0 -14 27 -20 38
-9 6 6 12 6 17 -3 5 -8 4 -10 -4 -5 -6 4 -11 4 -10 -1 3 -19 -2 -25 -14 -15
-8 7 -18 7 -27 2 -8 -6 -10 -10 -4 -10 6 0 11 -7 11 -15 0 -8 -4 -15 -9 -15
-4 0 -11 0 -15 0 -5 0 -8 10 -8 23 0 17 -6 22 -25 22 -15 0 -25 6 -25 15 -1 8
-6 14 -13 13 -7 -2 -12 2 -12 8 0 6 -9 1 -19 -12 -14 -17 -16 -28 -9 -36 9
-12 4 -17 -14 -14 -7 1 -5 -19 3 -34 4 -5 5 -18 4 -27 -2 -10 2 -16 8 -15 6 1
11 -3 12 -10 0 -6 4 -15 8 -20 5 -4 7 -1 5 7 -2 10 4 15 19 14 12 -1 21 1 20
5 -1 3 3 6 8 6 6 0 9 -4 7 -10 -2 -5 0 -6 5 -2 4 5 8 18 8 30 0 15 6 22 20 22
11 -1 24 5 28 12 5 8 12 11 17 8 5 -3 11 -1 15 5 4 6 11 8 16 4 5 -3 8 0 7 7
-2 7 3 13 11 14 18 0 23 35 5 35 -8 0 -14 7 -14 15 0 8 -4 15 -10 15 -5 0 -7
-7 -4 -15 8 -20 -1 -19 -22 3 -17 16 -18 16 -11 -2z"/>
<path d="M3555 2970 c-3 -6 -11 -8 -16 -5 -5 4 -9 1 -9 -5 0 -6 6 -10 13 -8 7
2 14 -1 15 -7 1 -5 -2 -11 -8 -11 -22 -3 -24 -4 -12 -16 9 -9 8 -16 -5 -31
-14 -15 -14 -18 -3 -15 8 2 14 -3 13 -9 -2 -7 0 -12 5 -12 4 1 9 0 12 -1 11
-5 119 -5 118 0 0 3 1 7 2 10 6 16 7 39 2 39 -21 -3 -23 3 -6 23 10 12 14 18
8 15 -7 -4 -17 -1 -23 7 -7 8 -20 13 -29 11 -9 -1 -23 2 -29 8 -7 5 -13 6 -13
2 0 -4 -6 -2 -14 4 -10 8 -16 9 -21 1z"/>
<path d="M7350 2221 c0 -5 -9 -11 -20 -14 -11 -3 -28 -26 -42 -56 -13 -31 -27
-50 -34 -47 -14 5 -27 -21 -18 -36 4 -7 0 -7 -12 0 -21 11 -53 -11 -34 -23 6
-3 10 -1 10 6 0 7 2 10 5 7 12 -11 -7 -37 -23 -31 -12 5 -14 2 -9 -12 6 -14 5
-16 -7 -6 -11 9 -18 8 -31 -6 -17 -16 -16 -17 1 -24 18 -7 18 -8 1 -8 -14 -1
-17 -6 -12 -21 4 -12 2 -20 -5 -20 -6 0 -8 5 -5 10 3 6 1 10 -4 10 -6 0 -11
-6 -11 -14 0 -8 -5 -18 -12 -22 -8 -5 -9 -2 -5 9 8 21 -2 21 -27 2 -11 -9 -29
-12 -40 -9 -21 6 -21 6 -1 -9 11 -9 22 -11 23 -6 2 5 8 9 14 9 6 0 6 -6 -2
-15 -7 -8 -16 -12 -21 -9 -5 3 -9 0 -9 -5 0 -6 -6 -11 -14 -11 -8 0 -22 -10
-30 -22 -13 -18 -16 -19 -16 -5 0 9 -5 17 -11 17 -5 0 -8 -4 -4 -9 3 -5 1 -12
-5 -16 -5 -3 -10 0 -10 7 0 8 -4 7 -11 -4 -5 -10 -17 -15 -27 -12 -10 4 -13 3
-6 -3 7 -5 8 -16 3 -28 -6 -15 -8 -16 -8 -4 -1 9 -8 20 -17 23 -15 6 -15 4 -3
-11 12 -15 12 -16 -3 -10 -21 8 -21 7 -7 -30 5 -15 7 -24 3 -20 -4 4 -14 1
-22 -6 -13 -10 -14 -9 -4 10 17 30 15 38 -4 22 -15 -12 -16 -11 -10 11 6 21 5
22 -4 7 -6 -9 -9 -26 -5 -36 3 -11 0 -23 -6 -27 -8 -4 -9 -3 -5 4 4 7 3 12 -3
12 -5 0 -13 -9 -16 -20 -7 -21 -25 -28 -25 -10 0 6 5 10 10 10 6 0 10 8 10 18
0 13 -5 10 -18 -11 -10 -15 -21 -25 -24 -22 -9 9 -58 -14 -58 -27 0 -9 3 -9
10 2 5 8 12 11 16 7 9 -9 -16 -38 -27 -31 -5 3 -9 0 -9 -5 0 -6 5 -11 12 -11
6 0 9 -2 6 -5 -10 -10 -39 8 -34 20 9 23 -45 -11 -58 -37 -6 -12 -17 -23 -25
-23 -7 0 -19 -9 -27 -19 -16 -23 -19 -14 -4 15 6 10 7 19 2 19 -5 0 -14 -12
-21 -27 -10 -21 -9 -28 1 -35 10 -7 10 -9 -2 -5 -10 3 -14 15 -13 33 l2 29
-13 -24 c-8 -14 -12 -31 -9 -38 3 -8 0 -11 -9 -8 -8 3 -18 -4 -24 -17 -6 -13
-9 -17 -7 -11 1 7 -9 16 -23 19 -16 4 -23 11 -20 21 3 8 1 11 -4 8 -6 -3 -7
-17 -4 -30 3 -12 1 -26 -5 -29 -7 -4 -8 -1 -5 8 3 9 1 16 -5 16 -6 0 -11 -5
-11 -11 0 -5 -4 -8 -9 -5 -5 3 -15 -1 -22 -10 -9 -11 -10 -17 -2 -22 7 -5 2
-12 -13 -19 -13 -6 -24 -7 -24 -3 0 5 5 10 12 12 9 3 9 6 0 12 -8 4 -16 -2
-21 -17 -6 -14 -16 -29 -23 -33 -9 -6 -9 -3 1 10 13 15 13 19 0 27 -8 5 -18 8
-24 8 -5 0 -4 -3 3 -6 6 -2 12 -9 12 -15 0 -6 -7 -7 -16 -4 -14 5 -15 4 -5 -7
9 -11 7 -17 -6 -28 -16 -13 -17 -12 -4 4 7 9 9 17 3 17 -5 0 -17 -10 -26 -22
-15 -22 -15 -21 -1 15 8 21 10 35 4 31 -6 -3 -14 -17 -20 -31 -8 -21 -13 -24
-39 -18 -25 5 -30 4 -29 -12 0 -10 3 -13 6 -5 2 6 9 12 15 12 6 0 5 -6 -2 -15
-7 -9 -15 -13 -18 -10 -3 3 -12 -1 -20 -8 -13 -10 -14 -9 -3 11 6 12 8 22 3
22 -5 0 -15 -13 -22 -30 -13 -33 -20 -36 -37 -19 -8 8 -16 6 -29 -8 -17 -17
-20 -17 -34 -3 -8 9 -12 11 -7 4 4 -6 0 -17 -8 -24 -13 -11 -14 -10 -9 4 3 9
1 16 -5 16 -6 0 -11 -6 -11 -14 0 -8 -4 -18 -10 -21 -6 -3 -7 1 -4 9 3 9 1 16
-5 16 -6 0 -11 -7 -11 -16 0 -8 -4 -13 -10 -9 -5 3 -7 13 -4 23 5 14 4 15 -5
2 -16 -22 -13 -40 7 -40 14 0 14 -2 3 -9 -16 -10 -44 16 -35 31 3 5 0 8 -6 8
-8 0 -10 -10 -6 -27 3 -16 3 -22 0 -15 -5 10 -9 10 -20 1 -9 -7 -14 -8 -14 -1
0 6 6 12 13 15 6 2 8 8 4 13 -4 5 -12 2 -16 -5 -6 -8 -14 -10 -22 -5 -12 6
-12 5 -1 -8 10 -12 9 -18 -3 -28 -13 -11 -15 -10 -10 1 4 10 -4 14 -31 14 -28
0 -39 -5 -45 -22 -4 -11 -14 -25 -21 -29 -10 -6 -10 -5 0 9 8 9 12 22 10 29
-3 7 -12 -1 -22 -19 -9 -18 -19 -33 -22 -33 -2 0 0 9 5 19 8 15 7 20 -5 25
-20 8 -34 -1 -34 -20 0 -8 -4 -14 -10 -14 -5 0 -6 8 -3 18 6 15 5 15 -10 3 -9
-7 -17 -10 -17 -6 0 5 -10 0 -22 -11 -19 -17 -21 -17 -15 -1 6 15 4 16 -26 4
-18 -7 -41 -13 -52 -12 -11 0 -27 -11 -36 -23 -11 -15 -19 -20 -23 -13 -4 6
-2 11 3 11 6 0 11 4 11 9 0 6 -12 3 -27 -5 -16 -7 -38 -14 -49 -14 -12 0 -39
-6 -61 -14 -21 -7 -51 -12 -66 -11 -15 2 -29 -1 -32 -5 -3 -5 -12 -7 -20 -3
-8 3 -15 1 -15 -4 0 -5 -8 -9 -17 -10 -117 -6 -199 -15 -201 -23 -2 -5 -10 -6
-18 -3 -7 3 -27 0 -44 -6 -18 -6 -28 -6 -25 -1 8 12 7 12 -33 1 -23 -7 -32 -6
-32 2 0 8 -3 8 -8 2 -4 -7 -83 -11 -219 -10 -133 0 -215 -4 -217 -10 -3 -5 -5
-2 -5 9 -1 14 -4 16 -14 7 -10 -8 -19 -7 -33 4 -10 8 -36 15 -56 15 -21 0 -38
5 -38 11 0 5 -4 7 -10 4 -5 -3 -18 -1 -28 4 -13 7 -23 6 -31 -2 -10 -9 -11 -8
-6 6 4 9 3 17 -3 17 -6 0 -12 -5 -14 -11 -3 -9 -10 -9 -27 1 -19 10 -25 10
-32 -1 -5 -8 -9 -9 -9 -3 0 5 5 15 12 22 9 9 16 8 29 -4 15 -13 17 -13 23 1 3
10 2 14 -5 10 -5 -4 -16 -1 -25 5 -12 10 -18 8 -34 -10 -11 -13 -20 -17 -20
-10 0 10 -3 10 -15 0 -13 -11 -14 -10 -9 4 3 9 12 16 19 16 8 0 17 5 21 11 4
8 -1 9 -17 4 -28 -9 -51 -30 -42 -39 4 -3 1 -6 -5 -6 -7 0 -12 5 -12 11 0 5
-4 8 -9 5 -5 -4 -7 4 -4 16 4 22 4 23 -11 4 -18 -22 -21 -14 -6 14 7 13 6 19
-5 24 -8 3 -12 11 -9 19 3 8 -2 20 -11 27 -9 8 -15 8 -15 2 0 -6 4 -13 10 -17
5 -3 7 -12 3 -20 -3 -8 0 -15 7 -15 10 0 10 -3 1 -14 -13 -16 -54 -29 -45 -15
3 5 12 9 20 9 8 0 14 5 14 10 0 6 -4 10 -10 10 -5 0 -7 7 -4 15 4 8 1 15 -5
15 -6 0 -11 -9 -11 -19 0 -11 -5 -23 -10 -26 -14 -8 -13 -1 5 42 14 33 14 34
-1 22 -15 -12 -16 -11 -9 10 5 17 4 21 -5 16 -6 -4 -10 -18 -7 -32 3 -18 1
-23 -10 -19 -8 4 -17 -3 -23 -17 -6 -16 -9 -17 -9 -5 -1 9 -4 18 -8 21 -5 2
-2 2 5 1 15 -4 16 13 1 18 -9 3 -8 11 1 28 13 24 12 24 -5 10 -17 -14 -17 -13
-10 9 4 15 4 21 -3 17 -6 -3 -12 0 -15 6 -2 7 -8 9 -13 5 -5 -4 -2 -12 5 -16
7 -5 10 -14 7 -20 -4 -6 -2 -11 3 -11 14 0 14 -27 1 -35 -6 -3 -7 1 -4 9 7 19
-12 22 -20 4 -3 -7 -4 -1 -2 15 2 15 -1 30 -5 33 -5 3 -4 14 2 25 6 12 8 23 5
27 -3 3 -6 0 -6 -6 0 -6 -9 -10 -20 -9 -11 1 -20 5 -20 9 0 4 -5 8 -12 8 -9 0
-9 -3 -1 -11 13 -13 -2 -69 -19 -69 -5 0 -6 -6 -2 -12 5 -9 2 -9 -9 1 -13 11
-17 11 -17 1 0 -8 -3 -10 -6 -7 -4 4 -1 14 7 23 12 16 12 17 -7 12 -16 -4 -21
-1 -18 11 5 21 -13 49 -23 36 -13 -16 -53 -36 -53 -26 0 5 9 13 20 16 11 3 20
11 20 17 0 6 -6 6 -15 -2 -8 -7 -15 -9 -15 -5 0 4 -6 3 -12 -2 -18 -14 -48
-24 -47 -15 3 20 -3 23 -18 11 -16 -12 -17 -12 -6 2 17 21 5 33 -16 16 -14
-11 -15 -10 -1 7 11 15 12 20 3 23 -7 3 -13 11 -13 18 0 8 -4 17 -10 20 -11 7
-75 -20 -105 -44 -19 -16 -19 -16 -2 12 20 31 16 34 -19 11 -14 -10 -23 -23
-20 -30 3 -8 0 -13 -7 -11 -16 3 -22 -116 -7 -143 10 -19 9 -20 -14 -14 -14 3
-37 7 -50 8 -13 0 -22 5 -18 10 3 5 -2 7 -11 3 -10 -3 -17 -2 -17 4 0 6 -4 8
-8 5 -4 -2 -27 4 -50 14 -23 11 -50 16 -59 13 -10 -4 -14 -2 -10 4 4 6 0 14
-9 17 -8 3 -13 2 -10 -3 3 -5 -3 -11 -13 -14 -15 -3 -17 0 -13 17 5 19 4 19
-11 7 -9 -7 -14 -18 -10 -24 3 -6 1 -7 -5 -3 -6 4 -9 12 -6 20 6 15 -40 38
-52 26 -5 -4 -20 -10 -34 -14 -14 -3 -19 -3 -12 0 17 8 15 41 -3 48 -8 3 -15
1 -15 -4 0 -6 5 -10 11 -10 5 0 7 -5 3 -11 -4 -8 -9 -7 -15 2 -4 7 -11 10 -15
7 -3 -4 -13 0 -21 8 -9 8 -20 11 -27 7 -7 -4 -4 -1 6 8 15 15 16 18 2 23 -8 3
-13 2 -10 -3 3 -5 -3 -11 -15 -14 -17 -5 -18 -3 -8 9 6 8 9 18 5 21 -4 4 -11
1 -16 -7 -9 -13 -14 -7 -12 12 3 18 -29 15 -43 -5 -8 -12 -15 -17 -15 -11 0 5
5 15 12 22 16 16 2 28 -15 13 -11 -9 -17 -8 -26 2 -6 8 -10 16 -8 18 1 2 -3
-1 -9 -8 -15 -17 -25 -16 -18 2 5 13 2 13 -24 0 -33 -17 -64 -11 -55 11 3 8 0
15 -6 15 -32 4 -36 6 -34 16 1 6 -5 17 -14 25 -12 9 -15 9 -9 1 4 -7 2 -13 -3
-13 -6 0 -11 -5 -11 -12 0 -6 3 -9 6 -5 8 8 33 -16 27 -26 -2 -4 -11 0 -20 8
-12 13 -18 13 -32 3 -14 -12 -15 -11 -2 5 15 19 1 23 -18 5 -10 -11 -11 -10
-6 5 8 19 -10 24 -18 5 -4 -9 -6 -8 -6 3 -1 8 4 20 11 27 9 9 9 12 0 12 -7 0
-12 -4 -12 -9 0 -10 -40 -19 -58 -13 -7 2 -12 8 -12 14 0 6 -8 17 -18 24 -22
17 0 19 31 3 18 -9 20 -9 10 2 -7 7 -34 14 -60 14 l-48 2 32 -13 c41 -17 47
-28 25 -45 -15 -13 -16 -12 -3 4 12 15 11 17 -2 17 -8 0 -17 -3 -20 -7 -2 -5
-3 -3 -1 4 1 6 -6 13 -17 16 -16 4 -18 2 -9 -7 7 -10 6 -17 -7 -27 -16 -13
-17 -12 -4 4 12 15 11 17 -2 17 -11 0 -14 5 -10 18 6 15 5 16 -12 2 -17 -14
-17 -13 -11 8 l8 23 -36 -21 c-20 -11 -36 -17 -36 -14 0 4 -8 0 -18 -7 -16
-13 -16 -13 -2 5 14 18 13 19 -8 14 -12 -4 -20 -2 -16 3 3 5 11 9 19 9 7 0 15
6 18 13 4 10 -2 13 -19 9 -13 -2 -27 -8 -30 -13 -10 -17 -32 15 -23 33 8 14 6
16 -8 11 -13 -5 -15 -3 -10 11 4 10 3 15 -4 11 -5 -4 -7 -15 -4 -26 4 -10 1
-27 -5 -36 -10 -16 -10 -16 -5 3 4 17 0 23 -19 28 -18 4 -24 11 -20 24 2 9 -1
7 -7 -5 -14 -27 -31 -31 -22 -5 6 15 5 16 -12 2 -17 -14 -18 -13 -12 3 3 9 2
17 -2 17 -5 0 -11 -6 -14 -12 -2 -7 -8 -10 -12 -6 -4 4 -2 16 6 25 13 16 12
17 -3 5 -13 -10 -17 -10 -22 0 -3 7 -3 2 0 -12 4 -20 3 -22 -5 -10 -10 13 -12
13 -21 0 -13 -20 -13 -4 0 21 7 13 7 19 0 19 -5 0 -10 -5 -10 -11 0 -6 -6 -9
-14 -6 -7 3 -19 0 -25 -6 -9 -9 -11 -8 -6 6 4 10 2 17 -4 17 -6 0 -11 -5 -11
-12 0 -6 -3 -9 -6 -6 -3 4 -1 16 6 27 6 12 7 21 1 21 -5 0 -11 -5 -13 -10 -2
-7 -15 -5 -36 5 -29 15 -35 15 -62 2 -19 -10 -32 -12 -36 -5 -3 5 -14 8 -24 5
-13 -3 -17 0 -13 9 3 8 0 14 -5 14 -6 0 -13 -8 -15 -17 -4 -14 -5 -13 -6 4 0
12 4 23 11 25 9 3 9 6 0 12 -7 4 -12 2 -12 -3 0 -6 -4 -11 -10 -11 -5 0 -7 8
-4 18 3 9 -2 5 -11 -10 -19 -34 -28 -36 -21 -5 3 12 3 16 0 10 -3 -7 -13 -13
-23 -13 -9 0 -23 -6 -30 -12 -11 -11 -12 -10 -5 2 5 8 10 23 11 34 3 16 0 15
-17 -5 -16 -19 -19 -20 -13 -5 4 13 2 17 -8 14 -8 -3 -14 -10 -14 -16 0 -5 -4
-14 -9 -19 -5 -4 -6 -3 -2 4 3 6 2 14 -4 18 -5 3 -10 0 -10 -7 0 -7 -11 -13
-24 -13 -14 0 -22 5 -19 12 3 6 11 9 18 7 7 -3 16 0 20 5 3 6 12 8 18 4 7 -4
5 1 -3 11 -8 11 -16 14 -18 7 -2 -6 -9 -11 -15 -11 -6 0 -19 -8 -30 -17 -11
-10 -17 -12 -13 -5 4 6 3 12 -3 12 -5 0 -12 -6 -15 -12 -3 -7 -3 2 0 20 3 22
1 31 -6 27 -5 -3 -10 -12 -10 -19 0 -8 -7 -20 -17 -27 -15 -13 -15 -12 -4 9
12 22 11 23 -11 17 -19 -7 -21 -5 -13 6 6 8 -3 1 -18 -16 -16 -16 -26 -25 -23
-18 4 6 2 14 -3 18 -6 3 -8 12 -4 20 3 8 1 15 -4 15 -5 0 -14 -14 -21 -32 -6
-17 -15 -29 -18 -25 -4 4 -1 13 6 22 7 9 10 19 6 22 -4 4 -10 3 -14 -3 -4 -6
-18 -15 -31 -19 -15 -5 -21 -4 -17 3 3 6 2 13 -4 17 -5 3 -10 -1 -10 -10 0
-13 -4 -14 -21 -4 -15 8 -19 8 -15 0 4 -6 2 -11 -3 -11 -6 0 -11 5 -11 12 0 6
-9 3 -20 -7 -11 -10 -20 -14 -20 -9 0 5 -5 2 -10 -6 -9 -13 -10 -13 -10 0 0 9
-14 21 -30 27 -17 6 -30 7 -30 2 0 -5 -5 -9 -11 -9 -6 0 -8 7 -5 16 3 9 2 12
-5 8 -6 -3 -8 -16 -5 -28 3 -11 1 -28 -5 -36 -8 -12 -9 -10 -4 8 4 13 2 22 -4
22 -6 0 -11 -3 -11 -7 0 -5 -11 -13 -25 -20 -19 -8 -27 -8 -32 0 -11 17 -10
31 2 40 6 5 2 6 -9 3 -14 -5 -17 -2 -12 11 4 11 -1 8 -14 -7 -11 -14 -20 -32
-19 -40 0 -11 4 -10 16 5 11 14 14 15 10 4 -3 -9 0 -22 6 -29 9 -10 9 -11 -3
-4 -21 12 -40 14 -40 3 0 -5 -5 -9 -11 -9 -8 0 -8 5 1 15 8 9 9 15 2 15 -6 0
-14 -5 -17 -11 -4 -6 -13 -8 -21 -5 -8 3 -14 1 -14 -4 0 -6 -4 -10 -10 -10 -5
0 -1 16 10 35 23 41 24 45 10 45 -5 0 -10 -7 -10 -16 0 -13 -3 -14 -14 -5 -11
10 -16 8 -21 -9 -4 -12 -4 -24 -1 -27 3 -4 6 1 6 10 0 10 5 17 10 17 15 0 12
-16 -5 -30 -8 -7 -15 -9 -15 -5 0 4 -8 1 -17 -6 -15 -12 -16 -12 -8 1 22 35
-1 64 -25 34 -9 -10 -9 -14 -1 -14 6 0 11 5 11 12 0 6 2 9 5 6 3 -3 1 -17 -4
-32 -7 -17 -7 -26 -1 -26 6 0 10 -5 10 -11 0 -8 -4 -8 -14 0 -11 9 -15 9 -19
-1 -4 -9 -6 -9 -6 -1 -1 6 4 15 9 18 14 9 -7 35 -26 35 -8 0 -14 5 -14 11 0 6
7 8 18 4 13 -5 14 -4 5 6 -10 10 -16 9 -28 -1 -9 -7 -12 -16 -7 -19 14 -9 23
-59 12 -66 -6 -4 -7 1 -3 12 6 16 5 17 -12 3 -17 -14 -18 -14 -6 8 12 22 11
23 -9 17 -11 -4 -27 -2 -35 5 -9 7 -15 8 -20 0 -3 -5 2 -10 11 -10 14 0 15 -3
6 -12 -16 -16 -46 -20 -33 -5 7 9 2 16 -15 24 -13 6 -24 7 -24 3 0 -5 6 -10
13 -13 6 -2 9 -8 4 -12 -4 -5 -13 -3 -19 3 -16 16 -25 15 -32 -4 -5 -14 -4
-15 9 -4 10 8 15 9 15 1 0 -6 -4 -11 -8 -11 -5 0 -13 -12 -19 -27 l-12 -28 5
30 c5 29 5 29 -10 11 -9 -11 -16 -15 -16 -10 0 6 5 15 12 22 7 7 8 12 4 12 -5
0 -3 7 4 15 7 9 10 18 7 22 -4 3 -12 -6 -18 -21 -7 -14 -16 -26 -20 -26 -5 0
0 16 11 35 13 24 15 32 5 29 -7 -3 -16 -17 -20 -31 -4 -18 -11 -23 -23 -19
-11 4 -8 -2 8 -16 16 -14 19 -19 8 -15 -10 4 -18 2 -18 -3 0 -6 -5 -10 -11
-10 -8 0 -8 5 1 15 10 12 10 15 -4 15 -9 0 -16 -6 -16 -14 0 -7 -8 -20 -17
-27 -16 -13 -17 -12 -5 3 9 11 10 18 2 23 -5 3 -10 1 -10 -5 0 -7 -7 -9 -15
-6 -9 3 -18 -1 -22 -9 -5 -13 -7 -13 -18 2 -14 18 -11 33 5 33 5 0 6 -8 3 -17
-6 -16 -5 -16 10 -4 9 7 17 10 17 6 0 -4 7 -2 15 5 8 7 15 9 15 6 0 -4 7 0 17
9 14 14 14 18 2 26 -8 5 -18 9 -24 9 -5 0 -3 -4 5 -10 26 -16 4 -21 -26 -5
-37 19 -54 20 -29 1 11 -8 23 -12 27 -10 5 3 8 0 8 -6 0 -12 -53 -2 -58 12 -2
4 -8 8 -14 8 -6 0 -6 -6 2 -15 15 -17 7 -19 -21 -5 -14 8 -19 7 -19 -1 0 -7
-10 -9 -25 -7 -13 3 -24 2 -23 -1 3 -28 -4 -39 -22 -34 -11 3 -20 10 -20 15 0
6 7 8 15 4 8 -3 15 -1 15 5 0 6 -8 9 -17 7 -17 -3 -18 -48 -21 -747 l-3 -743
32 -50 c18 -27 55 -67 84 -89 l52 -39 3512 0 3512 0 54 51 c32 30 68 77 85
112 l30 61 0 1003 c0 552 -3 1003 -5 1003 -3 0 -5 -4 -5 -9z"/>
<path d="M2971 1582 c3 -20 -3 -23 -18 -11 -16 13 -17 12 -4 -3 12 -16 11 -18
-2 -18 -8 0 -17 6 -20 13 -2 6 -11 -2 -20 -20 -21 -40 -21 -49 -2 -33 17 14
21 0 4 -17 -19 -19 18 -81 56 -95 19 -6 32 -16 29 -20 -3 -5 21 -8 54 -6 34 1
60 7 59 13 -1 5 4 9 11 7 7 -1 17 9 22 24 11 28 4 74 -12 74 -5 0 -6 4 -3 10
3 5 -5 21 -19 35 -15 14 -26 23 -26 20 0 -4 -7 1 -16 9 -8 9 -19 14 -23 11 -5
-2 -22 0 -39 5 -17 4 -31 5 -31 2z"/>
</g>
</svg>
