<?xml version="1.0" standalone="no"?>
<!DOCTYPE svg PUBLIC "-//W3C//DTD SVG 20010904//EN"
 "http://www.w3.org/TR/2001/REC-SVG-20010904/DTD/svg10.dtd">
<svg version="1.0" xmlns="http://www.w3.org/2000/svg"
 width="725.000000pt" height="1026.000000pt" viewBox="0 0 725.000000 1026.000000"
 preserveAspectRatio="xMidYMid meet">
<metadata>
Created by potrace 1.16, written by Peter Selinger 2001-2019
</metadata>
<g transform="translate(0.000000,1026.000000) scale(0.100000,-0.100000)"
fill="#000000" stroke="none">
<path d="M853 9677 c-2 -4 -9 -5 -14 -2 -5 3 -6 -2 -2 -11 4 -11 2 -15 -4 -11
-6 4 -8 -3 -6 -17 3 -13 -1 -27 -8 -31 -9 -6 -11 -3 -6 8 8 22 -44 33 -72 15
-30 -18 -32 -30 -32 -187 0 -109 -4 -141 -14 -141 -7 0 -18 -7 -25 -15 -9 -10
-9 -15 -1 -15 6 0 11 5 11 10 0 6 7 10 15 10 8 0 15 -4 15 -10 0 -5 -6 -10
-12 -10 -9 0 -8 -4 2 -10 12 -8 13 -11 1 -19 -10 -6 -10 -10 -1 -16 9 -6 9
-10 -1 -16 -9 -6 -10 -9 -2 -9 6 0 11 -9 10 -20 -1 -11 -4 -20 -7 -20 -13 0
-30 43 -25 63 5 17 4 19 -4 7 -5 -8 -11 -12 -13 -10 -2 3 -12 15 -23 28 -19
23 -19 23 1 17 20 -7 -40 27 -70 38 -11 5 -15 3 -10 -5 5 -8 -2 -9 -22 -4 -19
4 -24 3 -15 -2 10 -8 8 -13 -10 -26 -13 -9 -18 -16 -12 -16 6 0 10 -8 9 -17
-2 -10 6 -31 18 -46 18 -24 18 -29 6 -38 -11 -8 -9 -9 9 -4 16 5 21 4 16 -4
-3 -6 4 -20 17 -31 13 -11 19 -19 15 -20 -5 0 3 -14 17 -31 14 -17 26 -36 26
-42 0 -7 9 -18 21 -25 12 -7 18 -16 15 -19 -3 -4 -1 -12 5 -20 6 -7 8 -13 4
-13 -4 0 7 -13 25 -29 25 -21 31 -33 26 -47 -6 -15 -5 -16 5 -7 9 9 22 6 56
-14 35 -20 58 -26 121 -27 57 -2 82 2 95 13 17 14 20 14 34 -4 15 -20 15 -19
8 3 -4 13 -2 22 5 22 6 0 22 12 36 28 14 15 22 21 18 13 -4 -9 -3 -12 4 -7 5
3 12 1 14 -6 3 -7 7 -5 11 6 4 10 3 15 -3 11 -6 -3 -10 1 -10 9 0 8 5 18 10
21 5 3 10 15 10 26 0 11 7 19 16 19 12 0 15 7 12 25 -4 20 0 25 23 30 34 8 46
22 30 38 -8 8 -14 8 -23 -2 -11 -10 -10 -11 5 -6 10 4 17 2 17 -4 0 -6 -4 -11
-9 -11 -5 0 -17 -3 -25 -6 -12 -5 -15 -1 -13 12 1 11 6 25 10 32 5 7 4 12 -2
12 -14 0 -9 34 8 54 8 9 11 19 7 23 -3 3 -6 1 -6 -5 0 -7 -4 -12 -8 -12 -4 0
-8 13 -7 30 0 26 3 30 25 27 29 -2 36 26 8 31 -10 2 -18 -1 -18 -7 0 -6 -4
-11 -8 -11 -10 0 -7 208 3 218 3 4 10 0 15 -8 8 -12 10 -12 10 -2 0 8 -9 16
-20 19 -11 3 -20 10 -19 17 4 33 -3 56 -16 56 -8 0 -15 5 -15 10 0 6 5 10 10
10 6 0 10 6 10 13 -1 7 -8 3 -18 -9 -10 -11 -23 -19 -29 -17 -6 2 -14 -1 -18
-6 -3 -6 -11 -11 -17 -11 -6 0 -5 7 3 17 12 15 12 16 -3 10 -13 -5 -16 0 -16
25 1 16 -5 33 -12 38 -7 4 -9 13 -6 19 4 6 2 11 -3 11 -6 0 -11 -5 -11 -11 0
-5 -5 -7 -10 -4 -8 5 -7 11 1 21 8 10 8 14 0 14 -6 0 -11 -4 -11 -10 0 -5 -10
-10 -22 -11 -22 0 -22 -1 -3 -9 14 -6 16 -9 5 -10 -8 -2 -18 -2 -22 -1 -5 0
-8 -4 -8 -11 0 -21 -14 2 -18 30 -2 15 -7 28 -12 30 -5 2 -7 9 -4 15 5 13 -65
17 -73 4z"/>
<path d="M1356 9591 c-4 -5 12 -12 33 -16 l39 -6 -1 -112 -2 -112 -33 -3 c-20
-2 -32 -8 -29 -15 2 -8 35 -13 91 -15 68 -2 87 0 84 10 -3 7 -19 13 -36 13
-16 0 -33 2 -35 5 -5 5 -9 103 -8 188 1 34 4 42 20 42 26 0 51 10 51 21 0 12
-167 12 -174 0z"/>
<path d="M1681 9509 c-14 -5 -44 -7 -67 -3 -44 6 -70 -10 -34 -21 17 -6 20
-15 20 -75 0 -38 -4 -72 -10 -75 -23 -14 -7 -25 35 -25 46 0 60 14 25 25 -17
5 -20 15 -20 66 0 59 1 60 35 75 19 7 38 14 43 14 11 0 53 -36 48 -41 -2 -2
-6 -26 -9 -54 -2 -27 -7 -57 -11 -66 -5 -12 0 -18 24 -23 18 -3 36 -3 41 0 14
8 10 24 -6 24 -12 0 -15 15 -15 74 0 69 -2 76 -26 95 -29 23 -38 24 -73 10z"/>
<path d="M1896 9509 c4 -8 3 -9 -5 -5 -12 8 -51 -28 -51 -46 0 -24 49 -55 97
-62 44 -6 50 -9 46 -26 -13 -50 -74 -58 -110 -14 -20 24 -25 27 -33 14 -13
-20 -12 -30 3 -30 9 0 8 -3 -2 -9 -18 -12 11 -21 76 -24 38 -2 54 3 73 21 13
12 25 30 26 39 4 22 -30 50 -69 58 -59 12 -67 16 -67 36 0 11 10 23 22 28 28
10 68 2 68 -15 0 -18 20 -28 32 -16 17 17 -1 53 -25 51 -12 0 -24 0 -27 1 -3
1 -18 4 -33 6 -21 4 -27 2 -21 -7z"/>
<path d="M2320 9506 c-37 -14 -51 -40 -26 -49 10 -4 20 1 26 13 21 40 90 32
90 -11 0 -19 -43 -44 -60 -34 -14 9 -69 -16 -84 -39 -12 -19 -12 -27 -2 -47
10 -22 19 -24 81 -26 39 -1 85 0 103 3 35 5 45 24 12 24 -23 0 -23 2 -20 86 1
42 -3 64 -13 72 -22 19 -69 22 -107 8z"/>
<path d="M2523 9503 c-28 -5 -30 -23 -3 -23 18 0 20 -7 20 -74 0 -41 -5 -78
-10 -81 -18 -11 -2 -22 32 -23 47 -2 71 14 35 23 -28 7 -29 10 -29 90 0 19 1
39 1 44 1 11 58 26 81 22 8 -1 20 -9 27 -18 15 -19 11 -132 -6 -142 -10 -6 -9
-10 4 -15 32 -12 75 -7 75 9 0 8 -7 15 -15 15 -12 0 -15 13 -15 59 0 83 -12
109 -52 116 -18 4 -46 1 -62 -5 -20 -7 -32 -8 -40 0 -5 5 -12 9 -15 9 -4 -1
-16 -4 -28 -6z"/>
<path d="M4700 9363 c-8 -3 -19 -12 -23 -19 -9 -15 -37 -19 -37 -6 0 14 -62 2
-117 -23 -107 -49 -199 -174 -264 -358 -21 -61 -58 -108 -80 -103 -16 3 -102
-70 -125 -106 -36 -56 -35 -114 1 -193 11 -24 17 -58 16 -85 -2 -32 5 -58 22
-90 17 -32 21 -51 16 -65 -53 -127 -55 -141 -24 -210 42 -97 65 -124 108 -131
41 -7 41 -8 27 -34 -6 -11 -26 -21 -52 -25 -24 -4 -52 -15 -63 -26 -11 -10
-71 -34 -134 -54 -62 -19 -117 -38 -122 -40 -4 -3 -18 -23 -30 -45 -19 -33
-31 -42 -74 -55 -53 -15 -98 -49 -243 -187 -56 -53 -77 -81 -93 -124 -16 -42
-30 -61 -61 -81 -21 -15 -45 -38 -53 -52 -7 -14 -34 -50 -59 -79 -25 -30 -49
-65 -53 -79 -3 -15 -12 -33 -19 -42 -7 -9 -45 -58 -84 -108 -39 -51 -76 -93
-82 -93 -14 0 -49 41 -43 50 9 15 -199 124 -295 155 -68 22 -77 29 -85 66 -4
17 -15 35 -26 42 -23 14 -24 35 -3 58 9 10 18 44 21 79 5 51 10 63 27 70 23 8
38 33 56 93 10 32 9 41 -4 56 -12 14 -14 24 -7 43 10 26 3 45 -35 90 -12 15
-29 58 -38 96 -18 81 -65 200 -98 248 -16 24 -48 46 -106 75 -83 41 -84 41
-105 22 -12 -11 -37 -26 -55 -33 -38 -15 -93 -78 -117 -135 -20 -47 -24 -66
-29 -121 -2 -23 -6 -46 -8 -50 -3 -5 -4 -25 -2 -44 8 -129 7 -140 -12 -161
-10 -12 -18 -22 -16 -23 2 0 -2 -14 -8 -30 -8 -22 -8 -37 1 -57 6 -15 7 -34 3
-41 -5 -7 -9 -20 -11 -28 -3 -19 41 -86 76 -116 23 -20 28 -21 42 -8 15 13 17
12 24 -13 12 -50 36 -91 56 -96 22 -6 26 -37 4 -37 -9 0 -15 -9 -15 -22 0 -50
-11 -68 -40 -68 -62 0 -320 -160 -320 -199 0 -8 -6 -19 -13 -25 -8 -6 -24 -51
-36 -101 -12 -49 -28 -96 -35 -105 -15 -16 -66 -170 -66 -198 0 -9 -31 -80
-70 -157 l-70 -140 21 -160 c12 -88 22 -161 24 -163 6 -7 188 -27 251 -27 l71
0 -9 -37 c-27 -122 -40 -267 -41 -462 0 -133 1 -140 23 -158 12 -10 30 -18 40
-18 15 0 18 -14 24 -102 4 -57 8 -112 10 -123 2 -11 7 -48 11 -82 l7 -63 34 5
c19 2 78 17 131 34 54 16 134 37 178 47 72 15 91 19 133 23 11 1 12 23 6 119
-11 158 -11 209 2 222 7 7 26 -38 65 -156 l54 -166 80 8 c44 4 171 8 282 9
112 1 205 4 208 7 6 6 -11 81 -54 238 -11 42 -23 83 -26 93 -5 11 -1 19 11 24
55 21 62 60 30 178 -9 33 -19 72 -21 86 -3 14 -12 42 -20 62 -19 45 -19 57 -1
57 16 0 86 80 86 98 0 6 4 13 9 16 4 3 7 -23 5 -57 -1 -34 -4 -113 -5 -175
l-4 -112 30 -19 c52 -32 81 -73 84 -116 2 -42 3 -47 22 -160 6 -38 12 -83 14
-100 2 -16 8 -43 14 -58 6 -16 11 -39 11 -51 0 -23 32 -61 42 -51 6 6 158 -28
203 -45 17 -7 39 -13 50 -15 18 -2 180 -62 230 -85 11 -5 54 -18 95 -30 41
-11 99 -27 128 -36 88 -26 165 -46 197 -50 17 -3 44 -9 60 -14 98 -29 369 -49
521 -38 101 7 242 45 254 68 4 8 11 85 14 170 4 85 9 200 12 255 l5 100 48 46
c54 51 55 54 26 259 -10 69 -16 118 -34 270 -11 91 -23 194 -26 230 -13 148
-22 200 -35 200 -15 0 -60 72 -52 84 3 6 8 16 9 21 1 6 8 29 15 53 9 31 9 48
2 60 -12 19 -8 42 7 42 20 0 98 87 104 116 4 16 16 61 27 99 11 39 32 120 45
180 14 61 31 138 39 173 8 35 18 71 23 80 4 9 17 50 27 91 l19 74 65 42 c90
58 209 163 271 237 111 133 131 179 204 466 l37 142 -23 46 c-12 26 -34 58
-50 71 -17 16 -32 43 -40 75 l-12 50 35 32 c51 47 49 33 62 304 5 84 1 124
-19 225 -31 150 -38 167 -68 167 -21 0 -25 7 -36 57 -16 68 -50 108 -86 99
-18 -5 -25 -1 -30 14 -13 40 -105 17 -105 -26 0 -8 -10 -14 -25 -14 -43 0 -63
-35 -104 -180 -5 -19 -12 -71 -16 -115 -3 -44 -8 -105 -11 -135 l-6 -54 -14
32 c-7 18 -23 37 -36 42 -13 5 -30 14 -38 19 -8 5 -32 17 -53 27 l-38 19 -30
-35 c-16 -19 -28 -40 -26 -47 1 -6 30 -41 64 -76 60 -62 62 -65 67 -128 9 -97
32 -153 87 -213 50 -55 58 -73 37 -94 -8 -8 -8 -15 0 -25 10 -11 2 -23 -34
-57 -26 -24 -67 -74 -91 -112 -38 -59 -46 -66 -58 -54 -8 8 -45 18 -82 22 -37
4 -82 13 -101 21 -34 14 -97 9 -108 -9 -3 -5 -11 -5 -19 2 -24 20 -94 23 -121
5 -43 -28 -41 -6 2 30 23 19 47 49 54 66 9 22 26 37 57 50 106 45 180 125 216
231 14 41 14 55 2 113 -8 37 -24 82 -35 100 -19 30 -21 52 -24 232 -3 167 -6
207 -23 256 -43 121 -93 169 -270 257 -84 41 -88 42 -113 33z m-60 -43 c0 -5
9 -10 21 -10 11 0 17 5 14 10 -3 6 1 10 10 10 8 0 18 -7 21 -15 4 -8 17 -15
29 -15 32 0 42 -20 19 -37 -16 -12 -17 -15 -4 -23 23 -14 57 -12 63 4 4 10 1
13 -7 10 -10 -4 -14 3 -12 20 1 21 5 25 21 20 54 -17 155 -82 155 -100 0 -8 4
-14 10 -14 5 0 7 -7 4 -15 -4 -8 -1 -15 5 -15 6 0 11 -5 11 -11 0 -5 -6 -7
-12 -4 -7 4 -5 0 4 -7 15 -13 15 -15 0 -26 -9 -7 -11 -10 -5 -7 10 4 12 -7 10
-44 -2 -28 -7 -54 -12 -58 -4 -5 -5 6 -1 22 7 30 7 30 -9 7 -9 -12 -13 -28 -9
-35 5 -9 4 -9 -6 0 -11 10 -11 15 0 28 7 8 9 15 6 15 -4 0 0 7 8 16 18 18 21
34 5 34 -5 0 -8 -4 -4 -9 6 -10 -11 -24 -35 -28 -8 -1 -17 3 -21 8 -3 6 -6 -6
-5 -25 1 -29 7 -39 28 -50 16 -9 30 -11 33 -5 4 5 11 9 18 9 6 0 2 -6 -9 -14
-13 -10 -23 -11 -31 -4 -7 6 -20 8 -28 4 -9 -3 -13 -2 -10 4 3 6 -1 13 -9 16
-12 5 -13 11 -6 25 8 15 7 17 -5 13 -8 -4 -15 -1 -15 5 0 7 -8 7 -26 1 -32
-13 -37 -12 -29 0 3 6 14 10 24 10 21 0 35 36 17 44 -6 2 -3 5 7 5 21 1 23 17
2 25 -8 3 -15 12 -15 21 0 8 -5 15 -11 15 -7 0 -9 12 -6 33 3 17 3 27 1 20 -3
-7 -12 -9 -20 -6 -12 4 -14 -2 -12 -31 1 -21 6 -40 10 -42 17 -11 6 -32 -27
-55 -18 -13 -37 -34 -40 -46 -6 -26 -17 -28 -47 -12 -19 10 -18 12 14 27 49
25 95 122 57 122 -6 0 -8 -4 -5 -8 11 -18 -32 -89 -60 -100 -46 -17 -107 -25
-99 -13 3 6 1 11 -5 11 -32 0 -44 53 -16 72 19 12 -2 20 -23 8 -12 -6 -26 -8
-31 -5 -17 10 -2 57 25 82 35 33 31 39 -10 14 -19 -11 -35 -16 -35 -10 0 17
-24 36 -40 31 -8 -2 -4 4 10 14 14 10 31 24 38 31 7 7 20 13 28 13 8 0 14 4
14 9 0 9 21 16 58 20 6 0 12 -3 12 -9z m1051 -175 c6 -16 13 -24 16 -17 8 21
49 14 61 -10 21 -45 31 -125 29 -231 l-2 -107 -29 6 c-20 4 -26 3 -22 -5 11
-17 0 -13 -15 6 -12 14 -12 16 0 8 11 -6 13 -4 7 11 -8 20 -26 139 -28 187 -1
15 -4 27 -8 27 -12 0 -17 -59 -6 -70 7 -7 4 -10 -9 -11 -11 0 -14 -3 -7 -6 6
-2 9 -9 6 -15 -6 -9 -12 -56 -13 -105 -1 -17 -7 -23 -23 -23 -29 -1 47 -30 77
-30 11 0 40 -11 65 -24 25 -13 54 -26 65 -28 27 -4 46 -30 33 -45 -6 -8 -6
-18 1 -31 7 -13 7 -22 -2 -31 -9 -9 -8 -14 3 -21 13 -8 12 -10 -3 -10 -12 0
-16 -4 -11 -12 12 -19 13 -51 2 -72 -8 -14 -7 -17 4 -11 10 6 11 5 1 -5 -10
-11 -10 -17 0 -29 9 -11 9 -13 0 -8 -6 4 -14 3 -18 -3 -3 -5 -1 -10 4 -10 6 0
11 -5 11 -11 0 -5 -4 -7 -10 -4 -6 3 -7 -1 -4 -9 3 -9 1 -16 -5 -16 -6 0 -8
-7 -5 -15 4 -8 1 -15 -6 -15 -6 0 -9 -4 -6 -9 4 -5 -3 -7 -13 -4 -11 3 -28 -3
-38 -14 -26 -24 -51 -40 -90 -58 -18 -9 -33 -19 -33 -24 0 -5 -10 -11 -22 -14
-23 -4 -2 -6 114 -10 63 -2 75 -18 41 -52 -14 -14 -30 -16 -97 -12 -45 3 -92
8 -106 12 -19 5 -22 4 -10 -4 8 -6 11 -11 5 -11 -14 0 -43 20 -30 20 6 0 2 5
-8 11 -9 5 -22 7 -27 4 -6 -3 -10 -1 -10 5 0 6 -7 10 -16 8 -10 -2 -19 4 -21
12 -4 13 -3 13 6 0 9 -13 11 -12 12 5 1 11 1 24 0 28 -1 5 3 6 9 2 21 -13 60
-15 60 -4 0 7 -3 9 -7 6 -3 -4 -11 3 -17 16 -6 12 -26 28 -44 36 -17 8 -32 20
-32 27 0 8 -7 11 -17 7 -10 -3 -15 -3 -11 2 4 4 -6 20 -23 35 -19 16 -32 38
-34 56 -1 16 -6 47 -10 69 -4 22 -8 47 -10 55 -1 8 2 26 7 39 8 21 7 22 -7 11
-13 -11 -14 -10 -9 4 5 13 2 15 -12 10 -11 -4 -16 -4 -12 1 7 7 -14 35 -27 35
-3 0 -21 15 -40 33 -26 25 -31 36 -24 50 12 21 37 22 64 3 11 -7 22 -14 25
-14 3 0 17 -6 31 -12 20 -9 30 -25 40 -63 33 -120 55 -52 84 260 3 29 17 89
31 133 22 72 28 81 47 78 19 -3 22 -8 19 -45 -2 -24 1 -43 7 -43 5 0 9 8 9 18
-1 9 2 35 7 57 5 22 9 44 9 48 1 12 28 26 48 24 10 -1 22 -14 29 -32z m-1008
-266 c26 -7 47 -17 47 -21 0 -4 7 -5 15 -2 8 4 15 1 15 -5 0 -6 9 -11 20 -11
11 0 20 -5 20 -11 0 -5 4 -8 9 -5 4 3 26 -3 47 -14 22 -10 33 -19 26 -20 -7 0
-10 -4 -7 -10 3 -6 -1 -7 -9 -4 -9 3 -14 9 -11 13 2 5 -63 7 -145 6 l-150 -3
-92 38 c-51 21 -94 43 -96 49 -2 6 3 9 12 5 9 -4 16 -1 16 6 0 17 213 8 283
-11z m-194 -232 c19 5 87 -24 78 -34 -3 -3 11 -19 31 -36 20 -18 39 -35 40
-39 2 -5 8 -8 13 -8 6 0 8 4 5 8 -7 12 7 29 33 37 16 5 21 4 17 -4 -4 -6 -14
-11 -22 -11 -8 0 -14 -4 -14 -10 0 -19 31 -10 56 15 24 25 26 25 59 9 18 -8
36 -22 39 -30 3 -9 11 -12 17 -8 8 4 9 3 5 -5 -4 -6 0 -14 8 -17 9 -3 16 -10
16 -16 0 -5 -5 -6 -12 -2 -6 4 -8 3 -4 -4 3 -6 -3 -29 -15 -51 -14 -28 -20
-54 -17 -81 2 -23 -1 -40 -7 -40 -5 0 -4 -4 3 -8 18 -12 6 -37 -34 -67 -22
-17 -34 -22 -35 -13 -1 7 -3 27 -5 43 -10 113 -8 108 -58 135 -25 14 -55 33
-65 42 -16 13 -39 17 -113 16 -105 -1 -168 18 -168 50 0 20 123 148 128 133 2
-5 11 -7 21 -4z m-150 -43 c9 -20 7 -31 -8 -60 -14 -26 -17 -43 -11 -59 8 -21
5 -23 -38 -31 -26 -4 -49 -8 -52 -8 -3 -1 -11 -5 -19 -10 -11 -7 -13 -4 -9 12
4 12 2 25 -3 28 -6 4 -6 10 -1 17 10 13 26 74 20 81 -2 2 5 13 15 23 9 11 14
23 10 28 -5 4 -3 6 2 3 6 -3 19 -2 30 2 29 10 51 1 64 -26z m-66 -280 c-5 -14
-3 -14 14 -3 12 7 28 9 39 4 11 -4 33 -9 49 -11 137 -15 183 -23 221 -39 19
-8 34 -12 34 -10 0 3 9 -3 20 -12 10 -9 34 -22 52 -27 31 -10 39 -33 10 -29
-7 0 -11 -1 -8 -4 8 -9 -16 -28 -68 -52 -112 -54 -304 -30 -387 49 -23 22 -69
92 -69 105 0 14 18 2 30 -21 13 -23 15 -24 21 -7 4 10 3 23 -2 29 -6 7 -4 16
6 24 8 7 15 9 15 4 0 -4 5 -3 12 4 16 16 19 15 11 -4z m-138 -65 c-4 -5 -2 -9
3 -9 6 0 15 -12 20 -27 13 -35 100 -126 112 -118 6 4 10 2 10 -3 0 -19 152
-68 172 -56 4 3 8 0 8 -6 0 -6 4 -8 10 -5 5 3 36 8 67 10 66 6 123 22 123 37
0 5 6 8 13 5 10 -3 49 15 139 65 13 7 26 18 30 23 4 6 8 -1 8 -15 0 -23 -29
-59 -48 -60 -18 -1 -53 -40 -46 -52 4 -7 4 -10 -1 -6 -4 4 -21 -4 -38 -18 -61
-51 -101 -65 -200 -66 -51 0 -110 4 -132 10 -22 6 -51 13 -65 16 -14 2 -38 9
-55 16 -16 6 -43 12 -60 13 -19 2 -29 7 -27 15 1 8 -2 10 -8 7 -12 -8 -41 25
-34 37 3 5 1 8 -4 8 -5 0 -17 23 -26 52 -16 49 -16 55 1 99 9 27 20 46 25 43
5 -3 6 -10 3 -15z m1385 -217 c1 -44 98 -172 130 -172 34 0 101 60 126 113 13
29 24 44 24 34 0 -35 -40 -95 -97 -146 -57 -51 -73 -60 -73 -41 0 14 -33 12
-49 -2 -11 -11 -12 -9 -2 9 8 17 8 22 -4 27 -9 3 -20 17 -25 31 -5 14 -16 25
-24 25 -10 0 -13 6 -9 18 9 26 -11 2 -25 -30 -9 -22 -9 -26 2 -22 8 3 17 0 22
-7 5 -8 3 -10 -6 -4 -7 4 -16 2 -20 -5 -12 -20 -28 17 -41 99 -11 68 -11 74
12 118 l24 46 17 -39 c10 -22 18 -45 18 -52z m-3152 8 c41 -22 98 -78 88 -87
-3 -3 2 -12 12 -20 16 -14 16 -14 -3 -9 -18 5 -18 5 -4 -6 9 -7 14 -19 11 -27
-3 -8 0 -11 7 -7 7 5 9 1 5 -9 -4 -10 -13 -14 -23 -10 -12 5 -13 4 -4 -6 9 -9
16 -9 26 -1 16 14 27 6 27 -19 0 -9 3 -19 8 -22 4 -2 2 -2 -5 -1 -7 2 -5 -10
7 -31 11 -19 17 -35 14 -35 -4 0 -1 -7 7 -16 19 -23 -5 -34 -48 -21 -26 8 -36
8 -42 -2 -6 -9 -11 -9 -20 3 -9 11 -9 16 0 22 8 4 9 3 5 -4 -4 -7 -2 -12 3
-12 6 0 11 4 11 8 0 12 40 9 40 -3 1 -13 30 25 30 39 0 6 -5 5 -12 -2 -16 -16
-48 -15 -49 1 0 10 -2 10 -6 0 -2 -7 -9 -13 -14 -13 -6 0 -7 5 -4 10 3 6 1 10
-4 10 -6 0 -11 -5 -11 -12 0 -6 -2 -9 -5 -6 -12 11 7 37 23 31 9 -3 6 3 -7 12
l-24 18 23 19 c12 10 18 18 12 18 -5 0 -20 -8 -33 -19 -20 -16 -21 -21 -10
-35 7 -9 12 -16 10 -17 -2 0 -15 -3 -29 -5 -14 -2 -32 -14 -41 -26 -16 -21
-18 -21 -34 -4 -11 10 -26 15 -39 12 -17 -4 -26 3 -44 34 -17 30 -19 40 -9 40
8 0 19 -10 26 -22 11 -23 11 -23 5 2 -4 14 -14 31 -23 38 -9 8 -10 11 -3 7 15
-7 15 0 2 24 -7 15 -4 23 15 37 18 13 23 24 19 41 -5 17 -2 23 10 23 9 0 16 5
16 11 0 8 5 8 15 -1 8 -7 15 -9 15 -5 0 4 6 2 14 -4 10 -9 15 -8 19 3 3 8 -1
20 -9 26 -8 7 -14 9 -14 4 0 -5 -4 -3 -9 5 -8 12 -13 12 -35 -3 -23 -14 -26
-14 -26 -1 0 8 -4 15 -10 15 -5 0 -7 -6 -5 -12 6 -17 -12 -45 -22 -35 -4 5 -3
11 2 15 6 4 10 14 10 22 0 10 8 14 28 12 15 -2 35 4 43 13 20 19 26 19 72 -5z
m2530 -72 c27 5 27 5 9 -16 -11 -12 -26 -18 -35 -15 -14 4 -14 3 -3 -5 11 -8
5 -22 -30 -73 -24 -35 -47 -65 -51 -67 -5 -2 -8 -8 -8 -14 0 -5 -18 -31 -41
-58 -38 -45 -43 -48 -71 -39 -17 4 -35 6 -39 3 -5 -3 -9 -1 -9 4 0 5 -16 8
-35 8 -42 -1 -43 -5 -11 -44 l25 -29 -38 1 c-37 1 -38 1 -23 -21 8 -13 19 -23
26 -22 7 0 6 2 -1 6 -7 2 -13 9 -13 15 0 6 7 7 16 4 8 -3 12 -2 9 4 -7 12 -3
12 19 4 9 -3 16 -12 16 -20 0 -8 5 -14 10 -14 6 0 10 -4 10 -10 0 -5 -7 -10
-16 -10 -9 0 -12 -5 -8 -12 4 -7 4 -10 -1 -6 -4 4 -14 3 -21 -3 -8 -6 -20 -9
-28 -6 -11 4 -13 1 -9 -10 5 -12 3 -14 -6 -8 -7 4 -16 4 -20 -1 -3 -5 -16 -14
-28 -21 -17 -10 -24 -9 -33 2 -15 17 -30 20 -30 4 0 -5 5 -7 10 -4 6 3 10 -1
10 -10 0 -9 -4 -13 -10 -10 -6 4 -7 -1 -3 -11 5 -14 3 -16 -11 -11 -14 6 -17
4 -12 -10 4 -10 4 -14 0 -10 -4 4 -14 1 -22 -6 -13 -10 -15 -9 -9 8 5 12 -3 7
-19 -13 -14 -18 -30 -29 -35 -26 -6 3 -16 -1 -23 -11 -10 -14 -12 -10 -13 24
-2 34 1 39 15 34 9 -3 2 6 -17 21 -41 31 -50 32 -58 9 -3 -10 -14 -36 -24 -59
-18 -40 -16 -89 3 -78 5 3 5 11 -2 19 -14 16 17 85 38 85 12 0 12 3 2 15 -17
21 -10 24 18 9 14 -7 19 -14 13 -18 -5 -4 -7 -14 -4 -24 6 -15 5 -15 -10 -3
-10 8 -20 11 -24 7 -3 -3 -1 -6 5 -6 7 0 12 -7 12 -16 0 -14 3 -14 15 -4 22
18 18 -4 -5 -31 -20 -24 -20 -24 -36 -4 -15 19 -15 19 -9 -7 4 -16 3 -28 -2
-28 -6 0 -19 -8 -31 -17 -11 -10 -30 -26 -42 -36 -11 -10 -25 -15 -30 -12 -4
3 -10 -1 -13 -7 -2 -7 -8 -10 -12 -6 -4 4 -2 16 6 25 13 16 12 17 -3 4 -12 -9
-16 -21 -12 -40 4 -20 3 -23 -5 -11 -10 14 -15 7 -12 -13 1 -4 -12 -15 -29
-25 -16 -9 -30 -20 -30 -24 0 -5 -4 -8 -8 -8 -4 0 -8 9 -8 19 0 11 3 18 7 15
4 -2 10 8 13 21 4 15 11 23 17 19 8 -4 7 -10 0 -17 -17 -17 -13 -28 7 -16 9 6
18 22 18 35 1 13 -2 21 -7 18 -11 -6 -11 -1 -3 20 3 9 11 13 16 10 13 -8 28
15 28 44 0 13 4 20 10 17 5 -3 12 6 16 20 3 14 10 25 16 25 5 0 6 4 3 10 -3 5
3 15 15 22 11 7 20 18 20 24 0 6 24 33 53 60 28 27 54 54 57 59 3 6 9 9 13 7
4 -1 10 6 14 15 10 27 70 84 144 136 64 45 99 77 85 77 -7 0 -57 -30 -66 -40
-3 -3 -26 -20 -52 -37 l-48 -33 0 44 c0 31 6 48 21 62 12 10 23 18 25 17 13
-8 34 -1 28 9 -4 7 -3 8 5 4 6 -4 22 -1 35 7 26 18 166 61 173 54 2 -3 -16
-17 -40 -32 -25 -14 -51 -33 -59 -43 -12 -15 -11 -16 12 -1 140 87 294 169
298 159 1 -4 15 -5 30 -2z m340 -72 c12 -12 12 -15 -4 -20 -11 -3 -22 -5 -26
-3 -4 1 -15 -8 -24 -21 -13 -19 -19 -21 -30 -11 -9 7 -14 8 -13 3 2 -10 -9
-41 -44 -117 -16 -33 -26 -46 -37 -42 -11 5 -12 3 -3 -6 6 -6 9 -18 6 -25 -6
-16 -43 -19 -43 -3 0 5 -5 7 -12 3 -9 -6 -9 -9 0 -12 7 -2 12 -8 12 -13 0 -5
-15 -2 -32 7 -42 21 -24 2 22 -24 35 -19 60 -15 83 13 5 6 5 0 2 -12 -5 -19
-3 -22 12 -16 14 5 16 3 6 -7 -10 -11 -15 -11 -28 0 -8 7 -19 10 -22 6 -4 -4
-1 -12 7 -17 11 -8 9 -9 -9 -4 -19 6 -23 4 -18 -9 4 -9 4 -16 1 -16 -2 0 -9
12 -14 26 -9 22 -13 24 -26 13 -12 -10 -20 -10 -35 -1 -16 10 -21 10 -26 -3
-8 -22 13 -43 28 -28 6 6 18 9 27 6 10 -4 13 -2 8 5 -4 7 -2 12 4 12 7 0 10
-7 6 -15 -3 -8 -1 -15 4 -15 6 0 10 -5 10 -10 0 -7 -7 -7 -21 0 -24 13 -41 4
-19 -10 8 -6 10 -10 5 -10 -6 0 -16 5 -23 12 -6 6 -15 8 -19 4 -4 -4 -1 -11 7
-16 8 -5 11 -12 8 -16 -10 -9 -35 19 -30 34 2 6 -1 12 -8 12 -6 0 -10 6 -9 13
1 6 -3 25 -10 42 -7 16 -10 37 -8 47 3 10 1 16 -4 12 -5 -3 -9 9 -9 25 0 17
-3 31 -7 31 -5 0 -8 -27 -8 -60 0 -33 4 -60 9 -60 4 0 6 -7 3 -14 -4 -9 -1
-13 6 -10 8 3 12 -9 13 -36 0 -22 -3 -40 -8 -40 -4 0 -8 6 -9 13 0 6 -4 2 -9
-11 -5 -12 -6 -30 -3 -40 6 -15 5 -15 -10 -3 -9 7 -17 19 -17 27 0 7 -4 15 -9
18 -5 4 -7 -2 -5 -11 2 -10 0 -25 -5 -33 -9 -13 -12 -12 -24 4 -8 11 -19 16
-25 12 -5 -3 -13 -1 -15 4 -3 6 -4 5 -3 -2 2 -7 9 -13 17 -13 15 0 32 -21 35
-43 2 -8 -3 -12 -9 -9 -7 2 -23 7 -37 11 -21 5 -20 3 5 -9 17 -8 41 -12 55
-10 22 5 23 4 7 -6 -10 -6 -29 -8 -43 -5 -13 4 -24 2 -24 -3 0 -5 12 -12 26
-15 15 -4 24 -9 21 -13 -3 -3 -21 3 -39 12 -35 19 -118 28 -118 13 0 -4 5 -8
12 -8 6 0 9 -3 5 -6 -3 -3 -20 1 -37 9 -26 14 -34 14 -57 2 -15 -8 -32 -11
-37 -6 -6 4 -29 9 -51 10 -46 2 -52 6 -37 24 7 8 9 17 5 20 -3 4 -2 7 3 7 5 0
15 -9 22 -21 10 -15 17 -18 26 -10 6 6 23 8 37 5 13 -2 18 -1 10 2 -11 5 -11
8 0 16 10 7 8 8 -9 5 -13 -3 -33 0 -46 7 l-23 12 23 11 c13 6 26 7 29 3 3 -5
0 -10 -6 -12 -7 -2 5 -4 26 -4 21 0 33 2 27 4 -18 6 -14 22 6 23 11 0 12 2 4
6 -7 3 -19 0 -26 -7 -10 -7 -16 -8 -21 0 -3 5 0 10 7 10 7 0 29 11 49 24 24
17 40 21 50 15 23 -15 34 -10 13 6 -19 14 -19 14 1 15 18 0 18 2 -5 21 -17 15
-19 19 -7 15 12 -4 16 -2 11 5 -4 6 0 15 7 20 11 7 10 9 -3 9 -10 0 -18 -5
-18 -11 0 -15 -18 -1 -30 24 -11 21 -11 21 4 3 9 -11 16 -15 16 -9 0 5 15 10
32 11 18 0 34 6 36 11 2 6 10 11 18 11 9 0 13 4 10 8 -3 5 4 15 15 22 10 8 19
20 19 28 0 7 4 10 10 7 6 -3 7 1 4 9 -3 9 -1 16 5 16 6 0 11 6 11 14 0 7 11
21 24 32 14 10 23 21 21 24 -2 4 7 18 20 32 13 14 21 29 18 32 -4 3 5 7 18 7
13 1 35 3 49 4 14 1 28 -2 32 -9 6 -8 8 -8 8 1 0 6 9 9 21 6 20 -5 20 -6 -3
-19 -13 -7 -30 -16 -38 -20 -8 -4 -19 -14 -23 -21 -5 -7 -13 -10 -19 -7 -7 5
-8 2 -3 -5 7 -12 -32 -49 -46 -44 -4 1 -6 -9 -5 -22 1 -23 16 -37 16 -16 0 6
23 32 51 60 51 50 114 82 192 96 21 4 40 11 42 16 7 11 46 2 63 -15z m-1093
-43 c-10 -16 -12 -22 -4 -15 16 15 39 16 39 1 0 -5 -4 -8 -8 -5 -4 2 -13 -4
-20 -14 -9 -14 -9 -21 0 -26 6 -4 8 -3 4 4 -3 6 -1 14 5 18 9 5 10 -1 4 -22
-10 -39 -13 -57 -14 -71 -1 -12 -17 -12 -41 1 -8 4 -5 -1 8 -12 21 -19 31 -39
15 -29 -5 3 -9 -5 -10 -16 -6 -92 -18 -153 -29 -160 -8 -4 -14 -13 -14 -20 0
-7 4 -6 10 3 7 11 10 6 10 -20 0 -46 -10 -81 -21 -74 -5 3 -6 -2 -3 -10 6 -16
-19 -50 -29 -40 -3 3 -13 -11 -22 -31 -23 -48 -29 -39 -10 15 8 24 13 45 11
48 -3 2 -8 -8 -12 -22 -5 -21 -9 -24 -20 -15 -8 6 -14 20 -14 30 0 10 -5 21
-10 24 -6 4 -8 11 -5 16 4 5 1 9 -6 9 -6 0 -9 8 -6 20 3 13 1 18 -6 13 -6 -4
-8 1 -5 15 4 14 2 19 -7 16 -8 -4 -11 3 -10 20 2 15 -1 24 -7 20 -5 -3 -9 2
-8 12 1 11 2 22 1 27 0 4 -1 10 -2 15 0 4 -5 12 -10 19 -7 7 -6 13 0 17 5 4 8
18 5 31 -2 14 -1 25 3 24 5 -1 11 0 16 1 9 3 15 4 59 13 48 10 55 23 26 48
l-23 21 35 29 c36 31 132 99 139 99 2 0 -5 -12 -14 -27z m-175 -145 c0 -4 -7
-9 -15 -9 -45 -4 -73 -19 -78 -42 -7 -31 -2 -88 12 -130 7 -20 11 -44 9 -54
-1 -10 2 -24 6 -32 7 -11 5 -13 -7 -8 -10 3 -17 2 -17 -3 0 -6 -9 -10 -20 -10
-11 0 -20 5 -20 11 0 5 -5 7 -12 3 -8 -5 -2 -12 17 -20 21 -8 32 -9 37 -1 8
13 58 -18 58 -36 0 -21 -17 -40 -24 -28 -4 6 -16 11 -27 11 -10 0 -19 4 -19
10 0 5 7 6 17 3 11 -4 14 -3 9 5 -4 7 -2 12 3 12 6 0 11 -7 11 -15 0 -8 4 -15
9 -15 13 0 7 33 -7 38 -6 2 -20 -2 -31 -8 -14 -7 -21 -7 -21 0 0 5 -5 10 -11
10 -8 0 -8 -5 1 -15 7 -8 11 -15 9 -16 -24 -5 -49 -4 -49 3 0 4 5 8 12 8 6 0
9 2 6 5 -2 3 -19 -2 -37 -11 -17 -9 -38 -13 -46 -10 -8 3 -28 1 -45 -4 -20 -6
-28 -5 -24 2 4 6 -1 8 -15 3 -27 -8 -27 1 0 16 17 9 23 8 30 -2 4 -7 11 -10
16 -6 10 10 -18 28 -34 22 -7 -2 -13 0 -13 4 0 5 -3 18 -7 28 -7 17 -6 17 11
1 22 -23 33 -23 15 -1 -12 15 -12 16 4 10 9 -3 17 -2 17 3 0 5 7 6 17 3 11 -4
14 -3 9 5 -4 7 -19 9 -36 5 -20 -3 -30 -1 -30 6 0 7 4 10 9 7 5 -4 21 -2 35 4
18 6 26 6 26 -1 0 -6 5 -7 11 -3 18 11 -8 22 -38 16 -24 -4 -25 -3 -12 10 8 9
18 13 23 10 5 -3 7 2 3 11 -6 17 23 57 42 57 7 0 9 5 5 11 -4 8 1 9 17 5 13
-3 18 -3 12 0 -19 9 -16 27 3 20 14 -5 15 -4 4 9 -12 14 -7 19 13 16 5 -1 5 4
1 10 -5 9 0 10 15 6 17 -4 20 -2 12 7 -7 8 2 21 31 46 52 45 70 52 86 32 6 -9
12 -19 12 -24z m-239 -109 c-54 -54 -87 -79 -97 -75 -8 3 -13 2 -9 -3 3 -5 2
-11 -2 -14 -5 -2 -2 -2 5 -1 9 3 7 -6 -4 -29 -11 -20 -19 -27 -22 -18 -2 7 2
17 9 22 12 7 12 9 1 9 -8 0 -16 -9 -19 -21 -4 -15 -12 -20 -28 -16 -16 3 -22
0 -18 -9 2 -7 11 -10 19 -7 13 5 15 1 18 -28 1 -6 -15 -13 -33 -14 -27 -2 -31
-1 -17 7 9 5 24 7 32 4 8 -3 14 -2 14 2 0 4 -14 13 -31 19 -25 10 -30 10 -25
-2 3 -10 0 -12 -12 -8 -9 3 -14 2 -10 -2 5 -5 -1 -14 -11 -22 -11 -7 -18 -21
-16 -31 2 -12 -3 -18 -16 -19 -24 -2 -24 -1 1 47 25 49 98 119 124 120 11 0
16 3 13 7 -4 3 10 20 30 37 20 17 48 42 62 56 21 21 102 67 120 70 2 0 -33
-36 -78 -81z m-1164 49 c20 -2 24 -28 4 -28 -10 0 -21 -3 -25 -7 -3 -4 -12 -8
-19 -9 -32 -6 -120 -54 -150 -82 -20 -19 -26 -19 -64 -9 -24 6 -43 15 -43 20
0 4 -4 6 -8 3 -12 -7 -92 15 -92 25 0 5 5 9 12 9 6 0 8 3 5 6 -4 4 -13 1 -22
-6 -9 -7 -15 -8 -15 -2 0 13 59 44 71 36 5 -3 9 -1 9 4 0 13 80 33 155 39 33
2 62 7 65 9 2 3 27 3 55 -1 27 -3 55 -6 62 -7z m-15 -162 c3 -13 1 -31 -3 -39
-5 -8 -12 -32 -15 -53 -3 -22 -9 -43 -12 -49 -4 -5 -7 -13 -7 -16 0 -4 -18
-34 -40 -68 -37 -56 -44 -62 -92 -72 -44 -10 -59 -9 -95 4 -36 14 -81 54 -84
76 -3 21 -25 59 -44 74 -14 12 -20 26 -17 38 4 14 2 18 -7 12 -6 -4 -4 0 7 9
10 10 16 22 12 27 -3 6 10 4 29 -4 23 -10 37 -11 41 -5 4 6 11 7 17 4 6 -4 5
-10 -3 -15 -12 -7 -12 -9 -1 -9 8 0 16 9 19 20 3 11 9 18 13 15 4 -3 10 1 13
8 9 23 74 19 97 -5 24 -26 25 -32 5 -48 -9 -8 -29 -10 -50 -7 -42 7 -46 -7 -7
-27 15 -8 22 -15 15 -16 -14 0 -90 -70 -76 -70 5 0 23 11 38 24 32 27 66 37
110 29 23 -4 27 -2 15 6 -8 6 -23 11 -33 11 -16 0 -15 3 5 30 21 29 21 31 5
65 -11 23 -13 34 -5 32 20 -4 58 -53 73 -94 12 -33 14 -35 14 -12 1 15 -8 38
-19 52 -19 24 -20 26 -3 36 10 6 14 11 9 11 -11 0 54 50 65 50 4 0 9 -11 11
-24z m1893 -67 c-4 -5 -4 -20 -1 -33 5 -21 11 -22 78 -22 40 1 81 -4 93 -9 11
-6 38 -10 60 -8 65 4 94 -5 88 -28 -4 -15 -11 -18 -27 -13 -11 4 -24 12 -28
18 -4 6 -8 7 -8 2 0 -5 -7 -3 -15 4 -9 7 -18 10 -21 7 -3 -3 7 -13 23 -22 25
-14 26 -15 3 -9 -24 6 -24 6 -5 -12 13 -13 20 -15 23 -6 5 15 32 16 32 1 0 -7
12 -8 33 -4 32 6 32 6 7 -8 -14 -7 -24 -18 -23 -24 1 -7 -7 -9 -19 -5 -21 5
-21 6 -2 13 24 9 20 11 -36 14 -25 1 -39 1 -32 -2 6 -3 12 -9 12 -15 0 -6 -6
-8 -13 -5 -7 3 -19 -4 -25 -14 -8 -12 -8 -19 -2 -19 5 0 10 4 10 8 0 5 6 9 13
9 6 0 21 4 32 8 17 6 16 5 -3 -10 -22 -16 -102 -28 -100 -16 1 4 -5 18 -12 34
-15 30 -31 34 -50 12 -7 -8 -20 -15 -29 -16 -11 0 -12 -2 -3 -6 10 -4 10 -9
-3 -23 -14 -15 -21 -17 -41 -8 -27 12 -31 23 -11 32 6 3 0 3 -16 -1 -23 -4
-26 -3 -21 13 4 14 3 15 -4 6 -8 -12 -15 -11 -42 3 -31 16 -31 17 -14 36 9 10
13 19 9 19 -5 0 -6 2 -3 5 3 3 17 1 32 -5 18 -6 25 -6 21 0 -3 6 -10 10 -16
10 -5 0 -17 8 -27 18 -17 17 -17 19 -1 36 17 17 18 17 38 -3 12 -12 27 -21 34
-20 6 0 2 5 -10 11 -27 13 -30 33 -5 47 22 14 35 14 27 0z m-1807 -415 c59
-27 201 -97 239 -118 13 -7 20 -16 15 -21 -4 -5 -2 -5 5 -2 21 12 42 -4 40
-30 -1 -14 4 -27 11 -29 7 -1 8 0 2 3 -10 5 -14 33 -5 33 3 0 12 -5 19 -12 15
-14 9 -51 -7 -41 -6 4 -8 0 -4 -10 3 -10 2 -17 -3 -17 -6 0 -10 6 -10 13 0 9
-3 8 -9 -2 -7 -10 -10 -10 -16 -1 -5 9 -12 4 -20 -16 -8 -20 -9 -31 -2 -36 8
-4 7 -15 -1 -32 -9 -19 -9 -26 0 -26 6 0 8 -3 5 -7 -4 -4 -21 4 -38 16 -35 26
-61 34 -106 32 -18 0 -33 4 -33 10 0 6 7 9 15 5 8 -3 15 -1 15 4 0 5 8 7 18 3
9 -3 14 -3 10 2 -4 4 -26 9 -49 10 -33 2 -42 -1 -49 -19 -5 -11 -9 -18 -9 -13
-1 4 -1 10 -2 15 0 4 -6 13 -12 21 -10 12 -9 14 6 8 9 -4 17 -2 17 4 0 6 8 8
17 5 10 -4 14 -4 10 0 -12 13 -137 11 -127 -1 13 -16 -4 -37 -23 -29 -9 3 -17
11 -17 16 0 6 6 5 15 -2 12 -10 15 -10 15 2 0 8 -19 19 -45 27 -25 7 -45 17
-45 22 0 12 6 11 38 -4 35 -17 147 -14 190 5 l33 14 -26 12 c-35 16 -44 15
-21 -3 28 -21 10 -18 -46 7 -46 21 -62 38 -35 38 9 0 8 3 -2 9 -7 5 -11 13 -7
19 3 5 0 12 -7 15 -10 4 -13 -2 -9 -18 2 -12 -2 -26 -8 -30 -9 -5 -10 -1 -5
15 6 20 5 21 -8 9 -15 -13 -14 -16 5 -31 11 -10 27 -18 35 -18 8 0 11 -5 8
-10 -4 -7 -12 -7 -18 -2 -7 4 -25 14 -42 20 -26 11 -28 11 -12 -2 14 -10 15
-15 5 -19 -10 -4 -10 -8 2 -16 8 -5 11 -13 7 -18 -5 -4 -11 -3 -15 2 -13 18
-81 45 -87 35 -3 -6 0 -10 7 -11 7 0 4 -4 -7 -8 -17 -7 -15 -10 17 -21 20 -8
35 -17 32 -22 -3 -4 -19 -1 -35 8 -17 8 -33 14 -35 12 -2 -2 13 -12 32 -23 30
-16 37 -17 44 -5 5 8 12 11 16 7 13 -13 -5 -21 -55 -23 -39 -2 -48 1 -44 12 3
8 -3 17 -13 21 -20 7 -50 33 -39 33 3 0 15 -5 26 -10 10 -6 19 -7 20 -3 9 67
7 84 -11 93 -33 18 -11 44 70 84 43 21 81 45 84 52 7 18 8 18 74 -12z m1504
-569 c4 -5 8 -14 8 -20 0 -5 -4 -4 -9 4 -5 8 -11 9 -15 3 -7 -12 29 -26 44
-17 5 3 7 0 4 -8 -2 -7 -20 -20 -39 -27 -46 -18 -44 -25 4 -24 54 1 43 -22
-12 -25 -58 -2 -178 -4 -202 -2 l-20 2 20 11 c11 7 31 13 45 14 14 1 34 2 45
3 17 1 15 4 -9 16 -23 12 -32 13 -44 3 -12 -10 -16 -10 -19 0 -3 6 -12 12 -21
12 -12 0 -9 4 8 13 15 8 57 12 103 12 42 -1 77 2 77 6 0 4 -30 7 -67 7 -95 0
-103 1 -103 13 0 5 3 8 8 6 4 -3 36 -1 72 3 81 9 113 8 122 -5z m296 0 c91 -3
147 -12 232 -34 27 -8 12 -9 -60 -6 -66 3 -84 1 -60 -5 19 -5 38 -6 42 -4 5 3
8 0 8 -5 0 -6 16 -11 35 -11 24 0 35 -5 35 -15 0 -8 -9 -15 -20 -15 -11 0 -20
-4 -20 -8 0 -4 -9 -8 -20 -8 -11 0 -20 4 -20 9 0 4 -4 5 -10 2 -20 -12 -9 -23
28 -30 54 -9 72 -23 26 -20 -156 10 -261 18 -274 21 -8 1 -28 3 -45 4 -18 2
-23 4 -12 7 9 2 17 8 17 13 0 4 10 10 22 13 l21 6 -24 20 c-13 10 -26 17 -29
15 -2 -3 2 -9 9 -13 18 -12 0 -20 -23 -11 -14 4 -16 9 -8 14 7 4 10 12 7 17
-4 5 17 9 49 9 31 0 58 5 62 12 5 8 2 9 -9 5 -10 -4 -28 -2 -41 3 -14 5 -26 5
-28 0 -2 -5 -12 -2 -23 7 -19 15 -19 15 4 8 18 -5 22 -4 16 5 -5 9 -4 11 4 6
6 -4 56 -9 109 -11z m-1378 -336 c0 -7 10 -20 22 -30 11 -11 19 -19 15 -19 -3
0 9 -15 26 -33 18 -18 36 -31 41 -29 10 5 -1 -32 -21 -71 -7 -15 -18 -25 -23
-22 -6 3 -7 -1 -4 -9 3 -9 1 -16 -4 -16 -6 0 -13 8 -16 18 -3 9 -18 25 -33 34
-59 37 -68 43 -75 53 -4 6 -8 6 -8 1 0 -5 -6 -3 -13 3 -8 6 -17 8 -20 4 -4 -3
-9 1 -13 10 -3 10 4 27 20 44 15 15 29 36 32 45 3 9 17 19 32 21 15 2 30 5 35
6 4 0 7 -4 7 -10z m-1156 -66 c-4 -34 2 -72 19 -130 l24 -81 -45 -7 c-47 -7
-62 2 -62 38 0 9 -4 17 -10 17 -5 0 -7 7 -4 15 4 8 1 15 -6 15 -6 0 -8 4 -5
10 3 5 -1 25 -10 44 -15 32 -15 37 -1 58 9 12 16 30 16 40 0 11 10 18 28 21
63 10 61 11 56 -40z m938 -115 c-8 -8 -5 -15 15 -25 32 -16 44 -8 17 12 -30
23 -7 17 31 -7 19 -13 34 -27 34 -33 -3 -26 2 -45 11 -45 7 0 7 7 0 20 -10 19
-10 20 9 8 11 -6 22 -19 25 -28 3 -8 12 -24 21 -36 13 -17 13 -23 2 -32 -10
-8 -13 -6 -12 11 0 12 -4 22 -10 22 -5 0 -8 -10 -7 -22 3 -17 -2 -23 -15 -23
-11 0 -32 -13 -48 -30 -36 -38 -53 -39 -27 -2 11 15 23 38 26 52 6 20 0 17
-36 -22 -34 -37 -45 -44 -55 -33 -9 10 -8 18 5 36 9 13 17 29 18 35 1 6 5 21
9 33 4 12 2 21 -4 21 -6 0 -11 -11 -11 -25 0 -14 -4 -25 -9 -25 -5 0 -11 -9
-14 -20 -4 -15 -13 -19 -40 -18 -41 1 -42 14 -8 91 11 27 21 55 21 63 0 8 10
19 23 24 31 12 43 12 29 -2z"/>
<path d="M620 3311 l0 -258 24 0 24 0 0 166 c0 213 0 213 14 181 6 -14 14 -34
19 -45 5 -11 27 -69 49 -130 60 -163 68 -177 93 -173 21 3 21 6 24 261 l2 257
-24 0 c-28 0 -26 16 -27 -222 -1 -76 -4 -138 -7 -138 -6 0 -84 198 -134 343
-4 10 -17 17 -32 17 l-25 0 0 -259z"/>
<path d="M1087 3563 c-9 -2 -15 -8 -12 -13 3 -4 -3 -6 -14 -3 -30 8 -114 -82
-130 -139 -7 -26 -11 -54 -7 -63 3 -9 2 -13 -4 -10 -6 4 -10 -9 -10 -30 0 -25
4 -34 12 -29 7 5 8 3 3 -5 -23 -38 52 -163 117 -197 56 -29 128 -34 156 -12
13 11 14 11 8 0 -15 -25 46 14 88 55 35 35 52 62 63 103 10 34 15 131 8 147
-5 10 -10 26 -12 36 -20 106 -156 188 -266 160z m118 -63 c28 0 84 -62 103
-111 35 -94 4 -198 -73 -251 -53 -36 -104 -43 -152 -21 -73 34 -111 91 -117
178 -5 70 14 121 64 170 33 32 47 38 97 44 32 3 60 3 61 -1 2 -5 10 -8 17 -8z"/>
<path d="M1380 3539 c0 -23 4 -30 18 -28 9 1 31 1 49 0 l32 -1 -2 -227 -2
-228 23 -3 c24 -4 22 -31 23 371 l0 87 50 0 c48 0 49 1 49 30 l0 30 -120 0
-120 0 0 -31z"/>
<path d="M1883 3559 c-20 -6 -38 -21 -47 -37 -17 -33 -17 -128 0 -125 7 1 11
-5 10 -14 0 -9 19 -32 44 -51 92 -70 100 -77 100 -90 0 -7 4 -11 9 -8 5 4 7
-4 3 -16 -4 -16 -2 -19 8 -13 10 6 11 4 4 -6 -4 -8 -9 -20 -11 -28 -4 -29 -41
-66 -71 -72 -17 -3 -30 -3 -27 1 2 3 -5 14 -16 23 -10 9 -19 24 -19 32 0 9 -9
15 -25 15 -19 0 -25 -5 -25 -22 0 -29 55 -92 71 -82 7 4 9 3 6 -3 -10 -16 29
-23 65 -12 44 12 76 46 89 91 11 43 2 111 -14 101 -6 -3 -7 -1 -3 6 11 18 -36
74 -92 110 -54 34 -78 76 -68 115 11 43 78 47 89 6 3 -14 14 -20 32 -20 25 0
27 3 21 28 -8 32 -59 82 -84 81 -9 0 -32 -5 -49 -10z"/>
<path d="M2305 3564 c-6 -1 -27 -5 -48 -9 -42 -7 -104 -56 -137 -110 -27 -43
-42 -129 -34 -187 4 -31 20 -70 45 -109 33 -51 42 -59 55 -49 12 11 13 10 7
-5 -5 -14 -3 -17 10 -12 10 4 16 2 14 -5 -1 -7 16 -18 38 -26 45 -15 110 -10
153 12 59 30 117 102 125 153 1 10 5 23 9 28 9 14 3 103 -11 151 -6 23 -22 53
-35 67 -13 14 -22 28 -19 31 18 17 -134 80 -172 70z m66 -65 c106 -36 160
-172 111 -281 -27 -59 -70 -97 -129 -112 -46 -12 -55 -12 -99 7 -62 27 -70 34
-100 104 -30 68 -29 113 6 188 40 87 122 123 211 94z"/>
<path d="M2740 3334 c0 -124 -1 -229 -1 -232 -1 -4 -1 -19 0 -34 1 -22 6 -28
25 -28 21 0 23 4 25 62 1 34 4 64 6 67 3 2 29 4 59 5 53 0 55 1 54 28 -1 27
-2 28 -59 28 l-58 0 -3 38 c-2 20 -2 83 0 140 l3 102 75 0 c72 0 74 1 74 25 0
25 0 25 -99 25 l-100 0 -1 -226z"/>
<path d="M3309 3528 c-26 -27 -30 -38 -28 -80 3 -63 25 -97 91 -143 78 -55 95
-83 89 -145 0 -8 -12 -28 -25 -43 -19 -22 -30 -27 -48 -22 -30 9 -58 34 -58
52 0 7 -11 13 -25 13 -21 0 -24 -4 -23 -26 2 -14 17 -41 36 -60 27 -28 40 -34
76 -34 38 0 48 5 80 40 33 36 36 46 36 98 0 71 -20 107 -92 160 -65 48 -86 71
-88 97 -4 36 0 44 24 60 29 19 61 8 71 -25 6 -19 34 -27 48 -14 10 11 -15 64
-40 84 -40 31 -89 26 -124 -12z"/>
<path d="M3520 3529 c0 -25 4 -30 23 -29 12 1 33 2 47 1 l25 -1 -2 -230 -2
-230 24 0 c14 0 25 5 25 10 0 6 -6 10 -12 10 -10 0 -10 2 -1 8 8 5 12 67 12
216 0 115 3 211 6 214 3 3 26 5 50 3 44 -2 45 -1 45 28 l0 30 -120 0 -120 1 0
-31z"/>
<path d="M4060 3554 c0 -8 62 -160 70 -169 4 -5 13 -27 19 -47 7 -21 16 -38
20 -38 10 0 11 -8 18 -140 3 -65 10 -118 16 -122 28 -17 35 4 35 110 1 104 2
110 42 196 32 70 80 197 80 212 0 1 -8 1 -17 0 -17 -3 -52 -51 -57 -78 -1 -7
-10 -28 -19 -45 -10 -18 -14 -33 -11 -33 4 0 0 -8 -9 -17 -8 -10 -16 -21 -16
-26 0 -4 -5 -15 -10 -25 -10 -18 -12 -14 -90 163 -20 47 -31 60 -48 61 -13 1
-23 0 -23 -2z"/>
<path d="M3069 3479 c-13 -41 -24 -78 -24 -84 0 -5 -3 -14 -7 -20 -13 -22 -48
-148 -42 -156 3 -5 1 -9 -3 -9 -12 0 -46 -127 -37 -141 4 -8 3 -10 -4 -5 -7 4
-12 1 -12 -8 0 -10 9 -16 23 -16 19 0 26 8 36 39 11 39 12 39 65 43 88 5 109
-2 122 -42 9 -27 18 -36 38 -38 14 -2 26 1 26 7 0 6 -5 11 -11 11 -5 0 -8 4
-5 9 8 12 -28 114 -37 104 -5 -4 -5 0 -2 9 7 18 -73 301 -86 306 -5 2 -7 7 -4
12 3 4 1 18 -3 30 -7 19 -12 11 -33 -51z m33 -111 c-4 -16 -2 -19 8 -13 9 5
11 4 6 -4 -4 -6 -2 -28 5 -49 7 -20 12 -38 11 -39 -1 -2 5 -21 13 -44 8 -23
15 -43 15 -45 0 -2 -29 -4 -65 -4 -36 0 -65 3 -65 6 0 16 54 191 62 202 15 17
17 15 10 -10z"/>
<path d="M4495 3533 c-35 -18 -95 -73 -95 -87 0 -5 -7 -17 -14 -25 -35 -38
-40 -173 -9 -241 42 -94 115 -144 208 -144 212 0 307 274 155 448 -18 20 -46
44 -61 52 -37 19 -145 18 -184 -3z m163 -52 c133 -68 148 -258 28 -355 -33
-27 -45 -31 -101 -31 -55 0 -68 4 -102 31 -54 43 -75 92 -75 170 0 54 4 72 28
111 51 83 144 114 222 74z"/>
<path d="M4867 3543 c-3 -5 -5 -91 -5 -193 -1 -216 10 -269 62 -301 33 -21
103 -23 99 -3 -1 7 5 11 15 10 11 -1 25 15 40 44 21 42 22 57 22 247 l0 203
-24 0 -24 0 0 -195 c0 -204 -6 -234 -47 -261 -16 -11 -25 -11 -45 -1 -45 22
-50 48 -50 260 0 188 -1 197 -19 197 -11 0 -22 -3 -24 -7z"/>
<path d="M5299 3483 c0 -38 -1 -153 -2 -258 l-2 -190 25 0 c24 0 25 3 25 60
l0 60 63 3 c62 3 63 4 60 29 -3 24 -7 26 -55 27 -28 1 -55 4 -58 8 -4 4 -8 66
-9 138 -1 148 -6 140 84 138 66 -1 68 0 68 26 0 24 -2 24 -99 25 l-99 1 -1
-67z"/>
<path d="M5540 3289 l0 -259 24 0 24 0 0 259 1 259 -25 0 -24 0 0 -259z"/>
<path d="M5640 3290 l0 -260 99 0 c98 0 99 0 99 25 0 24 -2 25 -73 25 -39 0
-74 2 -76 5 -3 2 -3 20 -1 40 l4 35 59 0 c56 0 59 1 59 25 0 24 -3 25 -59 25
-33 0 -61 4 -63 10 -1 5 -2 68 0 140 l3 130 75 0 74 0 0 30 0 29 -100 0 -100
0 0 -259z"/>
<path d="M5890 3289 l0 -259 23 0 24 0 -1 184 c-1 198 6 217 39 108 10 -31 23
-63 29 -71 6 -8 9 -15 7 -15 -6 -1 30 -98 42 -113 5 -7 6 -13 2 -13 -4 0 -3
-6 2 -12 6 -7 13 -25 17 -40 5 -22 12 -28 34 -28 l27 0 2 260 1 260 -24 0
c-22 0 -24 -4 -25 -57 0 -32 -2 -83 -2 -115 -1 -35 2 -54 8 -50 6 3 5 -1 -1
-9 -6 -8 -10 -42 -9 -76 1 -73 -15 -71 -35 5 -7 26 -16 52 -20 57 -4 6 -15 33
-25 60 -59 167 -66 183 -91 183 l-24 0 0 -259z"/>
<path d="M6202 3541 c-10 -6 -14 -65 -17 -259 -3 -229 -1 -252 13 -253 46 -3
97 4 128 17 33 14 115 89 112 102 -1 4 5 21 12 37 16 34 23 155 10 170 -5 5
-8 12 -8 15 2 11 -15 54 -26 68 -51 64 -115 110 -136 97 -5 -3 -11 -2 -14 3
-6 11 -58 13 -74 3z m117 -70 c87 -45 127 -176 83 -272 -29 -64 -85 -109 -142
-116 l-26 -4 2 176 c1 128 -1 173 -10 168 -6 -3 -6 0 2 8 6 7 12 23 12 36 0
29 26 30 79 4z"/>
<path d="M6522 3345 c3 -199 3 -200 26 -203 21 -3 22 -1 23 95 0 54 2 146 4
205 l2 107 -29 -2 -29 -2 3 -200z"/>
<path d="M2590 2730 c0 -5 5 -10 10 -10 6 0 10 -16 10 -35 0 -31 -3 -35 -25
-35 -14 0 -37 -11 -51 -25 -20 -20 -25 -33 -22 -67 4 -51 34 -74 74 -56 17 8
27 8 37 0 10 -9 18 -8 33 3 18 14 18 14 -5 15 -23 0 -23 0 -19 110 3 109 3
110 -19 110 -13 0 -23 -4 -23 -10z"/>
<path d="M900 2709 c0 -5 5 -9 10 -9 6 0 10 -35 10 -86 0 -71 -3 -89 -17 -100
-16 -12 -13 -13 25 -14 23 0 42 5 42 10 0 6 -7 10 -16 10 -11 0 -14 8 -12 33
3 28 7 33 37 37 65 10 94 98 38 116 -32 11 -117 13 -117 3z"/>
<path d="M3830 2630 c0 -5 5 -10 10 -10 14 0 12 -104 -2 -118 -9 -9 -3 -12 27
-12 37 1 38 2 21 15 -15 12 -17 22 -12 59 6 38 12 47 32 52 34 9 39 1 39 -57
0 -33 -5 -53 -15 -59 -11 -7 -4 -10 25 -10 30 0 36 3 27 12 -7 7 -12 34 -12
60 0 43 3 48 26 54 17 4 29 2 35 -7 13 -21 11 -93 -3 -107 -9 -9 -5 -12 20
-12 18 0 32 5 32 11 0 5 -4 8 -10 4 -5 -3 -10 22 -12 62 -3 66 -4 68 -31 71
-16 2 -35 -3 -44 -10 -13 -10 -17 -10 -20 0 -6 15 -55 16 -71 0 -9 -9 -12 -9
-12 0 0 7 -11 12 -25 12 -14 0 -25 -4 -25 -10z"/>
<path d="M6121 2604 c-42 -53 -17 -124 44 -124 61 0 96 76 59 128 -22 32 -76
30 -103 -4z"/>
<path d="M4958 2318 c8 -8 12 -49 12 -120 l0 -108 35 0 c48 0 85 37 85 83 0
46 -29 72 -71 63 l-31 -6 4 50 c3 47 2 50 -21 50 -20 0 -22 -3 -13 -12z"/>
<path d="M1051 2234 c-43 -55 -17 -124 47 -124 37 0 62 30 62 75 0 71 -68 101
-109 49z"/>
<path d="M4556 2218 c-22 -31 -20 -91 2 -111 25 -23 54 -21 86 4 32 25 37 86
8 112 -27 25 -78 22 -96 -5z"/>
<path d="M5402 2220 c-27 -25 -30 -90 -6 -114 22 -22 70 -20 94 4 26 26 27 90
2 113 -25 23 -64 21 -90 -3z"/>
<path d="M4840 1930 c-10 -6 -11 -10 -2 -10 7 0 12 -14 12 -35 0 -31 -3 -35
-25 -35 -37 0 -75 -42 -75 -83 0 -55 30 -79 78 -63 13 4 28 3 36 -3 9 -8 18
-7 32 4 18 14 18 14 -5 15 l-24 0 5 110 c5 112 1 122 -32 100z"/>
<path d="M5850 1931 c-17 -5 -21 -9 -12 -15 6 -4 12 -20 12 -35 0 -24 -6 -30
-40 -40 -45 -13 -60 -34 -60 -84 0 -47 31 -75 68 -61 19 8 33 7 45 0 13 -8 21
-6 34 7 17 18 17 18 -2 15 -19 -3 -20 2 -20 110 1 61 1 112 0 111 0 -1 -11 -4
-25 -8z"/>
<path d="M2736 1839 c-20 -16 -26 -29 -26 -58 0 -50 19 -74 60 -74 62 0 95 88
50 133 -26 26 -51 25 -84 -1z"/>
<path d="M6285 1843 c-22 -3 -48 -12 -57 -20 -19 -17 -24 -58 -8 -68 6 -4 5
-13 -3 -26 -10 -17 -9 -22 5 -33 16 -12 16 -14 0 -29 -42 -43 41 -76 91 -37
39 31 35 57 -10 69 -21 6 -46 11 -56 11 -30 0 -14 23 17 25 36 1 69 40 61 72
-4 16 -1 23 10 23 8 0 15 5 15 10 0 6 -6 9 -12 8 -7 -1 -31 -3 -53 -5z"/>
<path d="M5900 1530 c0 -5 5 -10 10 -10 6 0 10 -16 10 -35 0 -32 -3 -35 -28
-35 -57 0 -98 -78 -67 -126 15 -23 22 -26 55 -21 20 2 43 1 50 -3 15 -9 40 -2
40 11 0 5 -7 9 -16 9 -14 0 -15 15 -12 110 3 108 3 110 -19 110 -13 0 -23 -4
-23 -10z"/>
<path d="M2411 1453 c-22 -15 -29 -67 -10 -78 7 -5 5 -13 -6 -25 -14 -15 -14
-19 -1 -29 12 -10 13 -17 4 -31 -19 -30 -3 -50 42 -50 38 0 80 26 80 49 0 16
-31 34 -67 40 -45 7 -49 25 -6 29 38 4 56 23 56 59 0 15 7 33 15 39 25 18 -82
15 -107 -3z"/>
<path d="M2971 1434 c-26 -33 -27 -85 -3 -107 26 -24 75 -21 98 4 22 24 25 89
5 113 -22 26 -76 20 -100 -10z"/>
</g>
</svg>
